<?xml version="1.0" standalone="no"?>
<!DOCTYPE svg PUBLIC "-//W3C//DTD SVG 1.1//EN" "http://www.w3.org/Graphics/SVG/1.1/DTD/svg11.dtd" >
<svg>
<metadata>
Created by FontForge 20120731 at Tue Nov 28 20:56:03 2023
 By www
URW Software, Copyright 1995 by URW
</metadata>
<defs>
<font id="OCRAM" horiz-adv-x="1475" >
  <font-face 
    font-family="OCRAM"
    font-weight="400"
    font-stretch="normal"
    units-per-em="2048"
    panose-1="2 15 5 9 2 2 4 2 3 4"
    ascent="1689"
    descent="-359"
    x-height="1107"
    cap-height="1597"
    bbox="-1260 -599 2734 1981"
    underline-thickness="203"
    underline-position="-123"
    unicode-range="U+0020-F002"
  />
<missing-glyph 
d="M148 0v1597h1179v-1597h-1179zM1179 148v1301h-883v-1301h883z" />
    <glyph glyph-name=".notdef" 
d="M148 0v1597h1179v-1597h-1179zM1179 148v1301h-883v-1301h883z" />
    <glyph glyph-name="glyph1" horiz-adv-x="0" 
 />
    <glyph glyph-name="glyph2" 
 />
    <glyph glyph-name="space" unicode=" " 
 />
    <glyph glyph-name="exclam" unicode="!" 
d="M880 1428l-35 -661q-4 -61 -7 -78q-6 -39 -39 -63q-25 -17 -61 -17q-56 0 -87 44q-14 20 -20 114l-36 661q-3 50 -3 63q0 106 114 106h32q80 0 101 -15q44 -31 44 -92q0 -11 -3 -62zM774 0h-36q-86 1 -105 14q-26 18 -36.5 40.5t-10.5 59.5v30q1 78 14 97q17 25 40 36
q21 11 62 11h36q84 0 105 -14q47 -32 47 -100v-30q1 -77 -19 -103q-17 -23 -38.5 -32t-58.5 -9z" />
    <glyph glyph-name="quotedbl" unicode="&#x22;" 
d="M1216 1597v-81l-93 -482q-9 -50 -29 -73q-23 -27 -72 -27q-51 0 -76 35q-13 19 -21 63l-75 375h-225l-75 -375q-10 -50 -28 -71q-24 -27 -69 -27q-55 0 -79 36q-14 21 -22 64l-93 482v81h957z" />
    <glyph glyph-name="numbersign" unicode="#" 
d="M1032 1163h33q61 0 79 -2q41 -5 65 -38q19 -26 19 -58q0 -53 -47 -84q-21 -14 -116 -14h-33v-228h33q61 0 79 -2q41 -5 65 -38q19 -26 19 -58q0 -53 -47 -84q-21 -14 -116 -14h-33v-173q0 -61 -2 -79q-5 -41 -38 -65q-26 -19 -58 -19q-53 0 -84 46q-14 23 -14 117v173
h-197v-173q0 -61 -2 -79q-5 -41 -39 -65q-25 -19 -57 -19q-54 0 -84 46q-14 22 -14 117v173h-33q-61 0 -79 2q-41 5 -65 38q-19 26 -19 58q0 40 29 69q28 28 91 29h43h33v228h-33q-61 0 -79 2q-41 5 -65 39q-19 26 -19 57q0 47 31.5 72.5t88.5 25.5h43h33v173q0 61 2 79
q5 41 39 65q25 19 57 19q54 0 84 -47q14 -22 14 -116v-173h197v173q0 61 2 79q6 41 39 65q25 19 57 19q55 0 84 -46q14 -23 14 -117v-173zM836 967h-197v-228h197v228z" />
    <glyph glyph-name="dollar" unicode="$" 
d="M433 902h713q40 0 71 -31q28 -28 28 -79v-375q0 -42 -28 -72q-33 -33 -80 -33h-298v-176q0 -58 -13 -85q-12 -22 -37 -36.5t-52 -14.5t-52 14.5t-36 36.5q-14 27 -14 85v176h-269q-58 0 -86 14q-51 25 -51 89q0 63 51 88q28 14 86 14h675v181h-713q-41 0 -71 31
q-28 28 -28 79v374q0 41 28 72q32 33 80 33h298v174q0 57 14 85q25 51 88 51t88 -51q14 -27 14 -85v-174h269q58 0 86 -14q51 -26 51 -89t-51 -88q-27 -14 -86 -14h-675v-180z" />
    <glyph glyph-name="percent" unicode="%" 
d="M1200 1233l-766 -993q-52 -67 -102 -67q-35 0 -63 22q-40 31 -40 80q0 35 43 90l767 992q51 66 101 66q35 0 62 -21q40 -31 40 -80q0 -35 -42 -89zM226 1318v176q0 42 27 71q31 32 75 32h198q48 0 78 -30q29 -30 29 -73v-176q0 -44 -31 -73q-28 -28 -77 -28h-194
q-44 0 -73 25q-32 28 -32 76zM839 99v174q0 41 26 70q32 36 77 36h195q48 0 74 -24q34 -31 34 -82v-167q-1 -46 -26 -73q-30 -33 -74 -33h-207q-38 0 -69 28q-30 28 -30 71z" />
    <glyph glyph-name="ampersand" unicode="&#x26;" 
d="M971 441l76 66q55 47 93 47q46 0 77 -36q26 -29 26 -68q0 -45 -61 -99l-72 -63l88 -95q51 -55 51 -94q0 -43 -33 -74q-29 -28 -69 -28q-44 0 -97 57l-95 101l-148 -126q-35 -27 -72 -29h-239q-113 2 -185 74q-47 45 -71 117q-11 34 -11 74v176q-1 51 39 88l186 162
l-188 202q-37 35 -37 78v195q0 53 30 111q39 75 119 115q57 28 113 28h281q105 3 186 -72q82 -77 83 -182v-195q0 -30 -12 -49t-39 -43l-241 -205zM610 824l229 192v121q4 75 -74 79h-259q-36 0 -54 -20t-18 -59v-121zM815 305l-221 237l-160 -139v-129q0 -34 18.5 -51.5
t55.5 -17.5h192z" />
    <glyph glyph-name="quotesingle" unicode="'" 
d="M905 1412l-122 -490q-23 -90 -41 -108q-30 -30 -79 -30q-66 0 -97 47q-14 22 -14 117v486q0 75 8 103q5 15 21 31t32 22q27 7 103 7h44q83 0 109 -10q22 -8 38 -32.5t16 -49.5q0 -23 -18 -93z" />
    <glyph glyph-name="parenleft" unicode="(" 
d="M683 980v-363q0 -50 6 -61q5 -21 30 -53l222 -292q37 -48 46 -63q14 -24 14 -47q0 -39 -27 -67q-31 -34 -74 -34q-40 0 -74 35q-11 11 -44 52l-202 248q-55 67 -80 134.5t-25 147.5v363q0 87 26 152q10 24 35 65t44 64l202 250q50 61 71 75q19 11 47 11q48 0 80 -40
q21 -26 21 -61q0 -25 -20 -56q-6 -10 -40 -54l-222 -292q-25 -32 -30 -52q-6 -12 -6 -62z" />
    <glyph glyph-name="parenright" unicode=")" 
d="M755 1094l-222 292q-37 48 -46 64q-14 23 -14 46q0 39 27 68q31 33 74 33q28 0 47 -11q21 -14 71 -75l202 -250q55 -66 80 -134t25 -147v-363q0 -87 -27 -152q-9 -24 -34 -65.5t-44 -64.5l-202 -248q-38 -47 -52 -61q-28 -26 -66 -26q-48 0 -80 40q-21 26 -21 61
q0 26 20 57q7 9 40 53l222 292q25 32 30 53q6 11 6 61v363q0 50 -6 62q-5 20 -30 52z" />
    <glyph glyph-name="asterisk" unicode="*" 
d="M581 797l-289 246q-62 53 -62 99q0 39 25 68q31 36 78 36q38 0 92 -47l210 -181v269q0 58 14 85q25 51 88 51t88 -51q14 -27 14 -85v-269l210 181q55 48 93 48q46 0 77 -36q25 -29 25 -68q0 -47 -62 -100l-287 -246l288 -248q61 -52 61 -98q0 -38 -25 -67
q-31 -36 -77 -36q-37 0 -92 47l-211 179v-261q0 -58 -14 -85q-25 -51 -88 -51t-88 51q-14 27 -14 85v261l-211 -179q-55 -47 -92 -47q-46 0 -77 36q-25 29 -25 67q0 46 62 99z" />
    <glyph glyph-name="plus" unicode="+" 
d="M635 942v269q0 57 14 85q26 51 88 51q27 0 52 -14.5t36 -36.5q14 -27 14 -85v-269h269q58 0 85 -14q51 -25 51 -88t-51 -88q-27 -14 -85 -14h-269v-267q0 -58 -14 -85q-25 -51 -88 -51t-88 51q-14 27 -14 85v267h-265q-58 0 -85 14q-51 26 -51 88q0 27 14.5 52t36.5 36
q27 14 85 14h265z" />
    <glyph glyph-name="comma" unicode="," 
d="M842 519h-270q-58 0 -85 13q-22 12 -36.5 37t-14.5 52q0 63 51 88q27 14 85 14h374q39 0 69 -27q31 -29 31 -76v-484q0 -58 -14 -85q-11 -22 -36 -36.5t-52 -14.5q-62 0 -88 51q-14 27 -14 85v383z" />
    <glyph glyph-name="hyphen" unicode="-" 
d="M966 671h-457q-129 -4 -136 102v48q7 106 136 102h457q129 4 136 -102v-48q-8 -106 -136 -102z" />
    <glyph glyph-name="period" unicode="." 
d="M836 256h-196q-46 0 -75 30t-29 73v171q0 39 26 69q30 35 79 35h195q44 0 73 -25q35 -32 35 -79v-166q0 -44 -27 -75q-29 -32 -81 -33z" />
    <glyph glyph-name="slash" unicode="/" 
d="M1215 1412l-777 -1331q-21 -37 -35 -51q-29 -30 -70 -30q-46 0 -76 34q-26 30 -26 63q0 34 31 87l777 1331q21 37 35 51q29 31 71 31q45 0 75 -34q26 -30 26 -64q0 -33 -31 -87z" />
    <glyph glyph-name="zero" unicode="0" 
d="M230 205v1187q0 85 61 146q59 59 142 59h609q85 0 143 -60q61 -63 61 -155v-1190q0 -74 -59 -131q-63 -61 -145 -61h-616q-75 0 -134 58q-62 61 -62 147zM433 205h609v1187h-609v-1187z" />
    <glyph glyph-name="one" unicode="1" 
d="M841 205h202v383q0 136 101 136q102 0 102 -135v-479q0 -44 -24 -75q-25 -35 -70 -35h-784q-58 0 -86 14q-22 11 -36.5 36t-14.5 53q0 27 14.5 52t36.5 36q28 14 86 14h269v1187h-269q-58 0 -86 14q-22 11 -36.5 36t-14.5 53q0 27 14.5 52.5t36.5 36.5q28 13 86 13h473
v-1392z" />
    <glyph glyph-name="two" unicode="2" 
d="M436 694v-489h673q57 0 85 -14q51 -25 51 -88t-51 -89q-27 -14 -85 -14h-880v694q0 91 62 151q58 56 145 56h603v491h-673q-58 0 -86 14q-51 26 -51 89q0 27 14.5 52t36.5 37q27 13 86 13h673q88 0 148 -62q58 -62 58 -153v-481q0 -89 -62 -151q-58 -56 -144 -56h-603z
" />
    <glyph glyph-name="three" unicode="3" 
d="M1033 1392h-669q-58 0 -86 14q-51 26 -51 89q0 27 14.5 52t36.5 37q28 13 86 13h674q80 -1 137 -50q66 -58 63 -127v-446q-2 -108 -75 -176q43 -48 57 -82q23 -50 23 -127v-384q1 -85 -63 -149q-54 -55 -142 -56h-674q-58 0 -86 14q-51 26 -51 89t51 88q28 14 86 14h674
v368q0 60 -28 91t-82 31h-361q-57 0 -84 14q-22 11 -36.5 36t-14.5 52t14.5 52t36.5 36q27 14 84 14h363q46 0 76 33q18 19 22 39q5 17 5 55v366z" />
    <glyph glyph-name="four" unicode="4" 
d="M538 726h405v558q0 58 14 85q26 51 88 51q63 0 88 -51q14 -27 14 -85v-558q102 -13 102 -99q0 -77 -72 -101q-11 -4 -30 -4v-386q0 -58 -14 -85q-25 -51 -88 -51q-62 0 -88 51q-14 27 -14 85v386h-610v938q0 59 14 86q11 22 36 36.5t53 14.5q27 0 52 -14.5t36 -36.5
q14 -27 14 -86v-734z" />
    <glyph glyph-name="five" unicode="5" 
d="M635 898h404q88 0 146 -59q59 -60 58 -144v-490q0 -80 -55 -139q-64 -68 -149 -66h-469q-63 3 -124 26l-125 56q-38 16 -53 28q-38 30 -38 78q0 39 26 68q30 34 71 34q27 0 76 -22l111 -49q31 -12 61 -13l20 -1h444v490h-607v902h675q59 0 86 -13q51 -26 51 -89t-51 -89
q-28 -14 -86 -14h-472v-494z" />
    <glyph glyph-name="six" unicode="6" 
d="M434 732h712q40 0 71 -31q28 -28 28 -79v-517q0 -41 -28 -72q-32 -33 -80 -33h-801q-48 0 -78 32q-29 30 -29 73v1395q0 42 31 71q28 26 69 26h105q45 0 76 -34q26 -29 26 -70q0 -89 -102 -99v-662zM1041 528h-607v-323h607v323z" />
    <glyph glyph-name="seven" unicode="7" 
d="M1044 1392h-612q-14 -92 -97 -92q-64 0 -90 51q-14 26 -14 69v58q-1 115 109 119h907v-620q0 -30 -6 -45q-8 -23 -31 -43l-327 -280q-24 -21 -31 -37q-9 -20 -8 -47v-389q0 -58 -13 -85q-12 -22 -37 -36.5t-52 -14.5q-63 0 -88 51q-14 27 -14 85v486q0 24 5 39
q6 18 29 39l323 277q34 29 41 49q6 17 6 57v309z" />
    <glyph glyph-name="eight" unicode="8" 
d="M433 899v588q0 41 23 72q31 38 82 38h400q46 0 76 -35q27 -30 27 -75v-588q97 -10 150.5 -66.5t53.5 -149.5v-478q-3 -95 -64 -150q-56 -54 -140 -55h-616q-85 4 -137 58q-58 58 -59 135v502q0 93 69 151q64 50 135 53zM433 205h608v490h-608v-490zM638 899h198v493h-198
v-493z" />
    <glyph glyph-name="nine" unicode="9" 
d="M1040 866h-712q-41 0 -71 31q-28 29 -28 79v516q0 42 28 72q32 33 80 33h801q48 0 78 -32q29 -30 29 -73v-1395q0 -42 -31 -71q-28 -26 -69 -26h-105q-45 0 -76 34q-26 29 -26 70q0 89 102 99v663zM433 1070h607v322h-607v-322z" />
    <glyph glyph-name="colon" unicode=":" 
d="M836 256h-196q-46 0 -75 30t-29 73v171q0 39 26 69q30 35 79 35h195q44 0 73 -25q35 -32 35 -79v-166q0 -44 -27 -75q-29 -32 -81 -33zM836 953h-196q-46 0 -75 30t-29 73v171q0 39 26 69q30 35 79 35h195q44 0 73 -26q35 -31 35 -78v-166q0 -44 -27 -75q-29 -32 -81 -33
z" />
    <glyph glyph-name="semicolon" unicode=";" 
d="M842 519h-270q-58 0 -85 13q-22 12 -36.5 37t-14.5 52q0 63 51 88q27 14 85 14h374q39 0 69 -27q31 -29 31 -76v-484q0 -58 -14 -85q-11 -22 -36 -36.5t-52 -14.5q-62 0 -88 51q-14 27 -14 85v383zM736 1045h-196q-46 0 -75 30t-29 73v171q0 39 25 68q31 35 80 36h195
q43 0 73 -26q35 -31 35 -78v-166q0 -44 -27 -75q-29 -32 -81 -33z" />
    <glyph glyph-name="less" unicode="&#x3c;" 
d="M491 845l723 -478q38 -26 53 -41q28 -31 28 -72q0 -55 -42 -88q-31 -25 -65 -25q-39 0 -98 39l-856 569q-55 37 -55 97t56 97l855 569q60 40 98 40q40 0 73 -32q34 -33 34 -81q0 -47 -38 -82q-10 -10 -43 -31z" />
    <glyph glyph-name="equal" unicode="=" 
d="M1110 521h-744q-58 0 -85 14q-51 26 -51 88q0 27 14.5 52t36.5 36q27 14 85 14h744q58 0 85 -14q51 -25 51 -88q0 -62 -51 -88q-27 -14 -85 -14zM1110 956h-744q-58 0 -85 14q-51 26 -51 88q0 27 14.5 52t36.5 36q27 14 85 14h744q58 0 85 -14q51 -25 51 -88
q0 -62 -51 -88q-27 -14 -85 -14z" />
    <glyph glyph-name="greater" unicode="&#x3e;" 
d="M982 845l-722 481q-38 25 -53 41q-28 31 -28 72q0 55 43 88q31 25 64 25q38 0 98 -40l854 -569q57 -37 57 -97t-56 -97l-855 -569q-59 -39 -99 -39t-72 32q-34 33 -34 81q0 46 38 82q11 9 43 31z" />
    <glyph glyph-name="question" unicode="?" 
d="M1039 1192v77l-100 87l-515 -440q-55 -47 -93 -47q-46 0 -77 36q-25 29 -25 68q0 46 62 99l581 497q28 24 68 24q36 0 64 -24l206 -177q33 -28 33 -81v-162q1 -55 -43 -89l-565 -487v-89q0 -57 -13 -84q-26 -51 -89 -51q-62 0 -87 51q-14 27 -14 84v142q1 45 40 77z
M536 202q41 0 71 -30t30 -72q0 -43 -30 -72q-30 -30 -73 -30t-72 30q-29 31 -29 72t29 72q29 30 74 30z" />
    <glyph glyph-name="at" unicode="@" 
d="M741 81q-91 -77 -196 -77q-55 0 -110.5 23t-94.5 62q-41 41 -65.5 102.5t-24.5 121.5v367q-4 128 93 223q53 50 134 72q32 7 108 7h90q77 0 103 -7q16 -6 32 -22t21 -32q8 -27 8 -103v-486q0 -130 101 -130q66 0 88 65q7 21 7 89v845q0 67 -10 93q-23 58 -77 86
q-39 20 -88 20h-257q-80 -1 -117 -35q-18 -17 -43 -65q-38 -71 -95 -71q-45 0 -74 30q-25 25 -25 60q0 56 53 128q110 150 308 150h229q86 1 166 -33q128 -57 186 -166q40 -77 40 -156v-914q0 -114 -31 -168q-47 -83 -133 -127q-65 -33 -128 -33q-109 0 -198 81zM637 788
h-66q-61 0 -93 -30t-32 -89v-329q0 -64 19 -91q33 -47 81 -47q54 0 86 54q11 18 11 47l-1 27z" />
    <glyph glyph-name="A" unicode="A" 
d="M964 345h-456l-69 -238q-17 -58 -37 -81q-26 -29 -70 -29q-43 0 -74 32q-27 29 -27 67q0 24 13 68l396 1353q23 80 97 80q76 0 100 -80l393 -1353q13 -43 13 -68q0 -38 -27 -67q-31 -32 -75 -32q-43 0 -69 29q-21 23 -37 80zM906 550l-169 577l-168 -577h337z" />
    <glyph glyph-name="B" unicode="B" 
d="M1112 797q78 -76 111 -165q26 -74 26 -200q0 -169 -90 -280q-124 -152 -328 -152h-600v1597h610q135 0 238 -76q135 -100 162 -265q8 -44 8 -113q0 -115 -27 -184q-37 -96 -110 -162zM436 205h389q129 0 188 92q32 50 32 154q0 73 -12 106q-48 138 -214 138h-383v-490z
M436 900h388q128 0 188 94q27 42 31 99q2 22 2 59q0 104 -43 161q-60 79 -180 79h-386v-492z" />
    <glyph glyph-name="C" unicode="C" 
d="M1111 0h-355q-188 8 -270 174l-212 426q-45 91 -45 199q0 104 47 199l210 425q91 175 280 174h345q57 0 85 -13q22 -11 36.5 -36.5t14.5 -52.5q0 -103 -136 -103h-338q-77 3 -104 -63l-202 -402q-33 -66 -33 -133q0 -54 33 -121l197 -399q31 -71 117 -69h330
q136 0 136 -102q0 -103 -136 -103z" />
    <glyph glyph-name="D" unicode="D" 
d="M430 205v1187h-66q-58 0 -86 14q-51 26 -51 89q0 27 14.5 52t36.5 37q27 13 86 13h353q94 0 173 -57q61 -46 101 -124l203 -408q50 -102 50 -209q0 -113 -48 -210l-209 -419q-39 -78 -111 -123q-76 -47 -178 -47h-334q-58 0 -86 14q-51 26 -51 89q0 27 14.5 52t36.5 36
q27 14 86 14h66zM635 205h69q76 -2 105 64l203 411q27 55 27 113q0 65 -39 144l-194 391q-30 68 -107 64h-64v-1187z" />
    <glyph glyph-name="E" unicode="E" 
d="M435 205h675q58 0 86 -14q51 -25 51 -88t-51 -89q-28 -14 -86 -14h-880v1597h880q59 0 86 -13q51 -26 51 -89t-51 -89q-28 -14 -86 -14h-675v-493h274q136 0 136 -102q0 -103 -136 -103h-274v-489z" />
    <glyph glyph-name="F" unicode="F" 
d="M435 866v-729q0 -59 -14 -86q-26 -51 -89 -51q-62 0 -88 51q-14 28 -14 86v1460h880q59 0 86 -13q22 -12 36.5 -37t14.5 -52q0 -63 -51 -89q-28 -14 -86 -14h-675v-321h471q58 0 85 -14q22 -11 36.5 -36t14.5 -52q0 -28 -14.5 -53t-36.5 -36q-27 -14 -85 -14h-471z" />
    <glyph glyph-name="G" unicode="G" 
d="M1045 520h-170q-58 0 -86 14q-51 26 -51 88q0 103 137 103h374v-428q-1 -127 -97 -215q-85 -80 -207 -82h-405q-125 -2 -220 91q-88 87 -88 219v563q3 145 93 255l273 349q96 117 248 120h264q58 0 85 -13q51 -26 51 -89t-51 -89q-27 -14 -85 -14h-237q-59 0 -81 -13
q-20 -12 -50 -51l-254 -326q-52 -63 -51 -155v-519q-1 -50 19 -81q31 -41 100 -42h376q118 1 113 123v192z" />
    <glyph glyph-name="H" unicode="H" 
d="M1041 693h-607v-557q0 -58 -14 -85q-11 -22 -36 -36.5t-52 -14.5q-28 0 -53 14.5t-36 36.5q-14 28 -14 85v1325q0 136 103 136q63 0 88 -51q14 -27 14 -85v-563h607v563q0 58 14 85q25 51 88 51q103 0 103 -136v-1325q0 -54 -15 -85q-10 -22 -35.5 -36.5t-52.5 -14.5
q-62 0 -88 51q-14 27 -14 85v557z" />
    <glyph glyph-name="I" unicode="I" 
d="M841 1392v-1187h268q58 0 85 -14q51 -25 51 -88q0 -64 -51 -89q-27 -14 -85 -14h-739q-58 0 -85 14q-52 26 -52 89t51 88q28 14 86 14h266v1187h-271q-58 0 -85 14q-51 26 -51 89q0 27 14.5 52t36.5 37q27 13 85 13h744q58 0 85 -13q51 -26 51 -89q0 -64 -51 -89
q-27 -14 -85 -14h-268z" />
    <glyph glyph-name="J" unicode="J" 
d="M1141 1461v-1136q1 -109 -57 -195q-92 -130 -259 -130h-172q-185 -1 -276 139q-49 78 -49 163v286q0 58 14 86q26 51 88 51q103 0 103 -137v-256q0 -64 30 -94q36 -34 90 -33h165q60 0 89.5 30t29.5 90v1136q0 58 14 85q25 51 88 51q102 0 102 -136z" />
    <glyph glyph-name="K" unicode="K" 
d="M491 800l697 -598q61 -52 61 -100q0 -38 -25 -67q-31 -37 -77 -37q-37 0 -92 49l-619 530v-441q0 -57 -14 -85q-25 -51 -88 -51q-51 0 -77 34.5t-26 101.5v1325q0 136 103 136q63 0 88 -51q14 -27 14 -85v-438l620 527q54 49 92 49q46 0 77 -37q24 -29 24 -68
q0 -47 -61 -99z" />
    <glyph glyph-name="L" unicode="L" 
d="M437 205h671q58 0 85 -14q51 -25 51 -88t-51 -89q-27 -14 -85 -14h-876v1461q0 58 14 85q25 51 88 51q103 0 103 -136v-1256z" />
    <glyph glyph-name="M" unicode="M" 
d="M737 1236l249 361h259v-1461q0 -54 -15 -85q-10 -22 -35.5 -36.5t-52.5 -14.5q-62 0 -88 51q-14 27 -14 85v1178l-201 -289v-20q0 -58 -14 -85q-11 -22 -36 -36.5t-52 -14.5q-62 0 -88 51q-14 27 -14 85v20l-201 289v-1178q0 -58 -14 -85q-11 -22 -36 -36.5t-52 -14.5
q-28 0 -53 14.5t-36 36.5q-14 28 -14 85v1461h259z" />
    <glyph glyph-name="N" unicode="N" 
d="M1042 352v1109q0 58 13 85q26 51 88 51q103 0 103 -136v-1461h-271l-541 1232v-1096q0 -58 -14 -85q-26 -51 -88 -51q-51 0 -77 34.5t-26 101.5v1461h273z" />
    <glyph glyph-name="O" unicode="O" 
d="M496 157l-213 423q-54 106 -54 218q0 110 45 201l222 445q27 56 75 95q71 58 165 58q103 0 181 -69q37 -33 58 -75l226 -454q45 -90 45 -202q0 -108 -59 -226l-211 -422q-26 -53 -77 -92q-74 -57 -164 -57q-110 0 -187 81q-30 31 -52 76zM797 246l219 435q25 51 25 116
q0 68 -37 141l-209 417q-18 37 -57 37q-42 0 -61 -37l-203 -410q-41 -83 -41 -147t41 -145l199 -400q24 -48 65 -48q38 0 59 41z" />
    <glyph glyph-name="P" unicode="P" 
d="M437 604v-468q0 -58 -14 -85q-25 -51 -88 -51q-45 0 -76 34q-29 31 -27 68l1 20v14v1461h708q127 4 224 -93q90 -99 85 -234v-331q3 -148 -94 -247q-68 -67 -153 -81q-41 -7 -87 -7h-479zM437 809h492q59 0 88 32.5t29 97.5v331q0 60 -31.5 91t-92.5 31h-485v-583z" />
    <glyph glyph-name="Q" unicode="Q" 
d="M874 0l-75 187l-153 -131q-66 -56 -165 -56q-113 0 -189 88q-61 71 -61 166v589q-1 76 40 162q36 75 107 136l456 390q79 67 161 67q63 0 119 -29t89 -79q45 -66 45 -134v-594q0 -193 -145 -312l-140 -121l50 -124h128q51 0 81 -34q26 -29 26 -68q0 -46 -33 -77
q-29 -26 -81 -26h-260zM720 390l-63 160q-18 47 -18 74q0 51 45 80q26 17 56 17q70 0 97 -70l46 -121l85 72q76 62 75 172v562q0 57 -45 57q-14 0 -38 -20l-450 -388q-70 -63 -74 -151v-580q0 -49 49 -49q23 0 39 14z" />
    <glyph glyph-name="R" unicode="R" 
d="M436 866v-731q0 -58 -14 -84q-25 -51 -88 -51q-46 0 -77 33q-26 30 -26 73l1 29v1462h714q127 -1 217 -97q87 -95 84 -224v-92q3 -124 -80 -217q-94 -104 -241 -101h-194l476 -682q38 -53 38 -89q0 -34 -28 -63q-30 -32 -75 -32q-54 0 -102 68l-558 798h-47zM436 1070
h481q62 0 94.5 29t32.5 85v80q0 65 -31 96.5t-96 31.5h-481v-322z" />
    <glyph glyph-name="S" unicode="S" 
d="M965 1392h-485q-45 0 -45 -29q0 -14 17 -36l736 -944q57 -74 57 -152q0 -113 -89 -182q-64 -49 -145 -49h-503q-63 0 -122 28t-97 76q-58 74 -58 152q0 37 13 64q26 53 93 53q50 0 79 -41q14 -19 20 -74q3 -22 22 -37.5t44 -15.5h494q44 0 44 24q0 13 -22 42l-736 944
q-52 66 -52 148q0 126 108 197q56 37 146 37h486q61 0 120 -30t97 -79q56 -74 56 -154q0 -39 -13 -65q-26 -53 -91 -53q-50 0 -80 37q-15 20 -20 78q-3 27 -26 45q-21 16 -48 16z" />
    <glyph glyph-name="T" unicode="T" 
d="M634 1392h-200v-40q0 -58 -14 -85q-25 -51 -89 -51q-62 0 -88 51q-14 28 -14 85v245h1016v-244v-13q1 -10 1 -16q0 -52 -34 -82q-30 -26 -68 -26q-28 0 -53 14.5t-36 36.5q-14 27 -14 85v40h-202v-1255q0 -59 -13 -86q-12 -22 -37 -36.5t-52 -14.5q-28 0 -53 14.5
t-36 36.5q-14 27 -14 86v1255z" />
    <glyph glyph-name="U" unicode="U" 
d="M1249 1462v-1138q4 -131 -86 -228q-98 -102 -223 -96h-401q-141 3 -229 104q-80 95 -76 211v1146q0 57 14 85q25 51 88 51q64 0 89 -51q14 -27 14 -85v-1137q0 -52 19 -77q34 -42 95 -42h376q58 1 85 30q32 35 31 80v1146q0 136 103 136q62 0 87 -51q14 -27 14 -84z" />
    <glyph glyph-name="V" unicode="V" 
d="M738 382l302 784v296q0 135 103 135q63 0 88 -51q14 -27 14 -84v-282q0 -42 -2 -53t-17 -50l-392 -1009q-26 -68 -97 -68q-69 0 -96 68l-392 1009l-9 22q-11 28 -11 82v280q0 57 14 85q25 51 88 51q64 0 89 -51q14 -27 14 -85v-295z" />
    <glyph glyph-name="W" unicode="W" 
d="M737 89q-18 -84 -102 -89h-201q-57 -1 -88 51l-105 178q-13 22 -12 26v24v1183q0 51 15 84q10 22 35.5 36.5t52.5 14.5q63 0 88 -51q14 -27 14 -84v-1157l59 -100h85l57 100v632q0 136 102 136t102 -136v-632l57 -100h87l59 100v1157q0 135 103 135q63 0 88 -51
q14 -27 14 -84v-1183q0 -26 -18 -58l-99 -170q-26 -49 -87 -51h-204q-41 0 -74 30q-18 19 -28 59z" />
    <glyph glyph-name="X" unicode="X" 
d="M739 595l-301 -513q-22 -37 -35 -52q-29 -30 -70 -30q-47 0 -77 35q-26 29 -26 63t31 87l359 612l-359 615q-31 54 -31 88q0 39 34 70q29 27 68 27q47 0 79 -40q8 -10 26 -42l302 -514l300 514q21 37 35 52q29 30 70 30q46 0 76 -34q26 -30 26 -64q0 -33 -31 -86
l-358 -616l358 -612q31 -53 31 -87q0 -40 -34 -71q-29 -27 -68 -27q-47 0 -80 40q-8 11 -26 42z" />
    <glyph glyph-name="Y" unicode="Y" 
d="M738 963l303 393v105q0 58 14 85q25 51 88 51t88 -51q14 -27 14 -85v-176l-405 -525v-624q0 -136 -103 -136q-102 0 -102 136v624l-405 525v176q0 58 14 85q25 51 88 51t88 -51q14 -27 14 -85v-105z" />
    <glyph glyph-name="Z" unicode="Z" 
d="M509 205h597q58 0 85 -13q51 -26 51 -89t-51 -89q-27 -14 -85 -14h-876v130l736 1262h-600q-136 0 -136 103q0 63 51 89q27 13 85 13h879v-132z" />
    <glyph glyph-name="bracketleft" unicode="[" 
d="M745 205h366q58 0 86 -14q51 -25 51 -88t-51 -89q-28 -14 -86 -14h-719q-76 0 -103 8q-16 5 -32 21t-21 32q-8 27 -8 103v1269q0 62 2 80q11 84 118 84h44h719q59 0 86 -13q22 -12 36.5 -37t14.5 -52q0 -63 -51 -89q-28 -14 -86 -14h-366v-1187zM433 205h109v1187h-109
v-1187z" />
    <glyph glyph-name="backslash" unicode="\" 
d="M437 1515l778 -1331q31 -54 31 -87q0 -39 -34 -70q-28 -27 -68 -27q-47 0 -79 40q-8 10 -26 41l-777 1331q-31 53 -31 87q0 40 33 71q29 27 68 27q47 0 79 -40q8 -11 26 -42z" />
    <glyph glyph-name="bracketright" unicode="]" 
d="M731 1392h-366q-58 0 -86 14q-51 25 -51 88q0 64 51 89q27 14 86 14h718q76 0 103 -7q16 -6 32 -22t21 -32q8 -27 8 -103v-1269q0 -76 -8 -103q-5 -16 -21 -32t-32 -21q-27 -8 -103 -8h-718q-58 0 -86 14q-51 25 -51 89q0 63 51 88q28 14 86 14h366v1187zM1042 1392h-108
v-1187h108v1187z" />
    <glyph glyph-name="asciicircum" unicode="^" 
d="M738 1173l-304 -444q-32 -47 -84 -47t-79 42q-13 21 -13 46q0 27 24 74l357 680q22 41 43.5 57t55.5 16q43 0 67 -26q15 -15 32 -47l357 -680q24 -47 24 -75q0 -30 -20 -54q-28 -33 -72 -33q-52 0 -84 47z" />
    <glyph glyph-name="underscore" unicode="_" 
d="M0 -325v203h1475v-203h-1475z" />
    <glyph glyph-name="grave" unicode="`" 
d="M669 1305l-136 88q-68 45 -68 97q0 48 33 79q32 30 69 30q33 0 80 -31l135 -88q68 -44 68 -96q0 -47 -33 -79q-31 -30 -69 -30q-32 0 -79 30z" />
    <glyph glyph-name="a" unicode="a" 
d="M1009 685l-4 106q-5 128 -147 120h-243q-61 0 -79 2q-41 6 -65 39q-19 26 -19 57q0 47 31.5 72.5t88.5 25.5h43h269q143 3 238 -95q78 -86 78 -202l22 -643q2 -56 2 -59q0 -50 -26 -77q-29 -31 -69 -31q-39 0 -72 31q-24 22 -27 67l-159 -80q-36 -18 -73 -18h-240
q-118 -1 -205 75q-96 83 -96 212v136q-3 110 102 201q75 64 200 68h352q43 0 98 -7zM1020 310l-3 73q3 111 -114 113h-342q-43 0 -72 -23q-36 -30 -36 -76v-105q0 -43 35 -72q29 -24 67 -24h243z" />
    <glyph glyph-name="b" unicode="b" 
d="M450 964l82 76q41 38 82.5 52.5t111.5 14.5h101q71 0 100 -6q55 -12 98 -48l107 -89q44 -36 68 -90q21 -49 21 -97v-447q0 -48 -21 -97q-24 -54 -68 -90l-107 -89q-38 -32 -79 -43t-119 -11h-101q-72 0 -110 14q-44 16 -84 53l-82 76v-31q0 -55 -29 -83q-29 -29 -69 -29
q-53 0 -84 47q-14 21 -14 116v1187q0 62 2 80q5 40 39 65q25 19 57 19q53 0 84 -47q14 -21 14 -117v-386zM994 823l-75 59q-37 29 -71 29h-108q-41 0 -56 -6q-13 -5 -41 -28l-151 -128q-32 -27 -39 -49q-3 -13 -3 -66v-161q0 -57 6 -74q8 -17 36 -41l151 -128q31 -25 47 -30
q12 -4 50 -4h108q35 0 71 29l75 59q19 14 25 38.5t6 85.5v291q0 54 -3 73q-7 35 -28 51z" />
    <glyph glyph-name="c" unicode="c" 
d="M1065 0h-319q-68 0 -108 10q-57 14 -103 52l-184 156q-96 78 -97 217v238q1 139 97 217l184 156q40 34 87 47.5t124 13.5h319q61 0 79 -2q41 -5 65 -38q19 -26 19 -57q0 -54 -47 -84q-22 -15 -116 -15h-325q-41 0 -60 -7q-12 -4 -37 -26l-159 -135q-25 -21 -31 -45
q-3 -11 -3 -58v-172q0 -51 5 -66q8 -19 29 -37l159 -135q28 -24 44 -29q15 -5 53 -5h325q61 -1 79 -3q41 -5 65 -37q19 -26 19 -58q0 -53 -47 -84q-22 -14 -116 -14z" />
    <glyph glyph-name="d" unicode="d" 
d="M1025 964v386q0 62 2 80q5 40 39 65q25 19 57 19q53 0 84 -47q14 -22 14 -117v-1187q0 -61 -2 -79q-5 -41 -38 -65q-26 -19 -58 -19q-40 0 -69 29t-29 83v31l-82 -76q-40 -37 -84 -53q-38 -14 -110 -14h-101q-71 0 -100 6q-56 12 -98 48l-108 89q-43 36 -67 90
q-21 49 -21 97v447q0 48 21 97q24 54 67 90l108 89q43 36 98 48q29 6 100 6h101q73 0 110 -14q44 -15 84 -53zM450 699v-291q0 -54 3 -73q6 -35 28 -51l75 -59q37 -29 71 -29h108q41 0 56 6q13 5 41 28l151 128q32 27 39 49q3 13 3 66v161q0 57 -6 74q-8 17 -36 41l-151 128
q-31 25 -48 30q-11 4 -49 4h-108q-34 0 -71 -29l-75 -59q-22 -16 -28 -51q-3 -19 -3 -73z" />
    <glyph glyph-name="e" unicode="e" 
d="M450 410v-45q0 -55 31 -83l59 -55q20 -18 42 -25q15 -6 54 -6h422q61 0 79 -2q41 -5 65 -38q19 -26 19 -58q0 -54 -47 -84q-22 -14 -116 -14h-415q-60 0 -93 3q-57 5 -92 35l-123 105q-53 45 -69 106q-12 47 -12 133v372q0 60 20 111q24 55 56 82l110 96q46 40 92 52
q44 12 121 12h192q102 2 173 -56l118 -95q86 -76 85 -216v-167q0 -76 -7 -102q-5 -16 -21.5 -32t-32.5 -21q-27 -8 -102 -8h-608zM1025 606v134q1 55 -30 82l-61 52q-36 34 -82 37h-216q-34 0 -50 -6q-14 -6 -34 -22l-62 -51q-28 -23 -35 -48q-5 -13 -5 -57v-121h575z" />
    <glyph glyph-name="f" unicode="f" 
d="M740 1107h147q61 0 79 -2q41 -5 65 -38q19 -27 19 -58q0 -54 -47 -84q-22 -14 -116 -14h-147v-747q0 -62 -2 -80q-5 -41 -38 -65q-26 -19 -58 -19q-54 0 -84 47q-14 22 -14 117v747h-29q-61 0 -79 2q-41 6 -65 39q-19 25 -19 57q0 47 31.5 72.5t88.5 25.5h43h29v67
q-2 152 102 249q105 93 269 90h142q62 0 80 -2q41 -5 65 -38q19 -26 19 -58q0 -53 -47 -84q-22 -14 -117 -14h-154q-75 -1 -113 -30q-50 -38 -50 -114v-66z" />
    <glyph glyph-name="g" unicode="g" 
d="M1026 970q-1 71 19 97q30 40 79 40q53 0 84 -47q14 -21 14 -116v-962q0 -112 -12 -155q-14 -44 -66 -90l-103 -88q-85 -71 -203 -69h-325q-61 0 -79 2q-41 5 -65 39q-19 25 -19 57q0 47 31.5 72.5t87.5 25.5h44h314q59 0 94 28l79 64q20 17 25 49q1 13 1 53v252l-86 -78
q-47 -42 -92 -54q-22 -6 -86 -6h-143q-65 0 -95 8q-31 8 -63 34l-111 93q-95 80 -95 196v348q-1 73 26 125q22 47 69 83l89 69q49 38 87 51q49 17 94 16h136q97 0 168 -57zM451 727v-263q0 -69 27 -96l70 -61q32 -27 81 -27h122q36 1 79 37l147 120q31 25 38 39q11 22 11 52
v135q0 35 -14 59q-6 9 -35 32l-147 120q-43 36 -79 37h-122q-49 -1 -81 -27l-70 -61q-27 -27 -27 -96z" />
    <glyph glyph-name="h" unicode="h" 
d="M450 938l182 116q48 31 79 40q43 13 93 13h108q123 4 214 -86q52 -52 69 -128q7 -29 9 -100l15 -627q1 -9 1 -26q1 -22 1 -29q0 -52 -27 -80q-29 -31 -71 -31q-52 0 -83 45q-14 21 -16 116l-14 605q3 145 -114 145h-66q-43 0 -63 -7q-11 -4 -38 -22l-279 -173v-545
q0 -60 -2 -80q-5 -41 -39 -65q-26 -19 -57 -19q-53 0 -84 47q-14 22 -14 117v1186q0 62 2 80q5 40 38 65q26 19 58 19q53 0 84 -47q14 -22 14 -117v-412z" />
    <glyph glyph-name="i" unicode="i" 
d="M643 911h-128q-61 0 -80 2q-41 6 -65 39q-19 26 -19 57q0 47 31.5 72.5t88.5 25.5h44h161q76 0 103 -7q15 -6 31 -22t21 -31q8 -28 8 -103v-748h121q61 0 79 -2q41 -5 65 -38q19 -26 19 -58q0 -54 -47 -84q-22 -14 -116 -14h-445q-61 0 -80 2q-41 6 -65 39q-19 26 -19 57
q0 54 47 84q22 14 117 14h128v715zM839 1457v-28q0 -56 -29 -84t-86 -28h-35q-86 1 -105 14q-45 33 -46 98v28q1 74 14 93q17 26 39.5 36.5t61.5 10.5h36q89 -1 110 -19q32 -25 38 -62q2 -18 2 -59z" />
    <glyph glyph-name="j" unicode="j" 
d="M929 911h-212q-61 0 -79 2q-41 6 -65 39q-19 26 -19 57q0 40 29 69q28 29 91 29h43h245q75 0 102 -7q16 -6 32 -22t21 -31q8 -28 8 -103v-1025q0 -97 -17 -146q-75 -203 -309 -193h-153q-118 0 -200 73q-49 44 -77 109q-19 43 -19 81t30 67q29 29 71 29q77 0 99 -78
q19 -83 101 -85h170q73 0 97 51q11 26 11 92v992zM1010 1317h-35q-86 1 -104 14q-46 33 -47 98v28q1 74 14 93q17 26 40 37q21 10 62 10h35q82 0 103 -14q47 -31 47 -98v-28q1 -73 -19 -99q-15 -21 -34 -31q-21 -10 -62 -10z" />
    <glyph glyph-name="k" unicode="k" 
d="M450 648l472 396q44 37 62 49q24 15 49 15q39 0 66 -25q34 -30 34 -74q0 -40 -34 -74q-9 -8 -52 -44l-363 -299l451 -375q48 -39 60 -52q26 -28 26 -65q0 -49 -41 -80q-26 -20 -60 -20q-28 0 -60 22q-9 7 -52 42l-476 396l-82 -74v-222q0 -60 -2 -80q-5 -41 -39 -65
q-26 -19 -57 -19q-53 0 -84 47q-14 22 -14 117v1186q0 62 2 80q5 40 39 65q25 19 57 19q53 0 84 -47q14 -22 14 -117v-702z" />
    <glyph glyph-name="l" unicode="l" 
d="M643 1318h-128q-62 0 -80 2q-41 5 -65 39q-19 26 -19 57q0 53 47 84q22 14 117 14h161q76 0 102 -7q16 -6 32 -22t21 -32q8 -26 8 -102v-1155h121q61 0 79 -2q41 -5 65 -38q19 -26 19 -58q0 -54 -47 -84q-22 -14 -116 -14h-445q-62 0 -80 2q-41 6 -65 39q-19 26 -19 57
q0 54 47 84q22 14 117 14h128v1122z" />
    <glyph glyph-name="m" unicode="m" 
d="M450 1028l43 35q54 44 124 44q61 0 112 -31q29 -17 68 -67l44 42q33 31 63 43q31 13 81 13q101 0 162 -74q34 -41 46 -91q6 -28 8 -88l19 -688q1 -44 1 -55q0 -52 -26 -80q-29 -31 -72 -31q-51 0 -82 44q-15 22 -18 117l-19 648q-1 46 -10 60q-12 17 -34 17
q-20 0 -39 -20l-88 -90v-612q0 -62 -2 -80q-5 -41 -38 -65q-26 -19 -58 -19q-54 0 -84 47q-14 22 -14 117v655q0 70 -45 70q-19 0 -35 -15l-107 -98v-612q0 -62 -2 -80q-5 -41 -38 -65q-27 -19 -58 -19q-53 0 -84 47q-14 22 -14 117v828q0 48 24 78q31 37 79 37q69 0 93 -79
z" />
    <glyph glyph-name="n" unicode="n" 
d="M450 938l182 116q48 31 79 40q43 13 93 13h108q123 4 214 -86q52 -52 69 -128q7 -29 9 -100l16 -627v-26q1 -19 1 -29q0 -52 -27 -80q-29 -31 -71 -31q-52 0 -83 45q-14 21 -16 116l-14 605q4 145 -114 145h-66q-43 0 -63 -7q-11 -4 -38 -22l-279 -173v-545q0 -62 -2 -80
q-5 -41 -38 -65q-27 -19 -58 -19q-54 0 -84 47q-14 22 -14 117v780q0 61 2 79q5 41 38 65q26 19 58 19q40 0 69 -29q28 -28 29 -91v-43v-6z" />
    <glyph glyph-name="o" unicode="o" 
d="M1129 138l-75 -63q-94 -76 -212 -75h-209q-66 0 -112 16q-50 18 -100 59l-75 63q-90 76 -92 204v423q2 129 92 204l75 63q50 41 100 59q46 16 112 16h209q118 2 212 -75l75 -63q90 -75 92 -204v-423q-2 -129 -92 -204zM660 196h155q48 0 70 9q21 9 44 27l54 44
q41 34 42 90v375q-1 56 -42 90l-54 44q-26 21 -52 29q-19 7 -62 7h-155q-48 0 -70 -10q-22 -8 -44 -26l-54 -44q-41 -34 -42 -90v-375q1 -56 42 -90l54 -44q26 -21 52 -30q19 -6 62 -6z" />
    <glyph glyph-name="p" unicode="p" 
d="M450 112v-369q0 -61 -2 -79q-5 -41 -38 -65q-26 -19 -58 -19q-53 0 -84 47q-14 21 -14 116v1201q0 61 2 79q5 41 38 65q26 19 58 19q40 0 69 -29q29 -28 29 -83v-42l78 71q58 52 98 70q30 13 89 13h48q58 0 85 -9q43 -13 108 -65l158 -125q111 -85 107 -245v-261
q4 -160 -107 -245l-158 -125q-65 -51 -108 -65q-27 -9 -85 -9h-48q-58 0 -89 14q-40 17 -98 69zM988 745l-173 146q-22 19 -54 20h-35q-32 1 -77 -40l-161 -153q-24 -23 -31 -39q-7 -15 -7 -51v-190q0 -41 10 -59q6 -12 28 -32l161 -153q45 -40 77 -40h35q33 2 54 20
l173 146q29 24 34 48q3 16 3 50v229q0 34 -3 50q-5 24 -34 48z" />
    <glyph glyph-name="q" unicode="q" 
d="M1025 143l-82 -76q-40 -37 -84 -53q-38 -14 -110 -14h-101q-71 0 -100 6q-56 12 -98 48l-108 89q-43 36 -67 90q-21 49 -21 97v447q0 48 21 97q24 54 67 90l108 89q43 36 98 48q29 6 100 6h101q73 0 110 -14q44 -15 84 -53l82 -76v31q0 54 29 83t69 29q53 0 84 -47
q14 -21 14 -116v-1201q0 -61 -2 -79q-5 -41 -38 -65q-26 -19 -58 -19q-53 0 -84 47q-14 22 -14 116v400zM481 284l75 -59q37 -29 71 -29h108q41 0 56 6q13 5 41 28l151 128q32 27 39 49q3 13 3 66v161q0 57 -6 74q-8 17 -36 41l-151 128q-31 25 -48 30q-11 4 -49 4h-108
q-34 0 -71 -29l-75 -59q-22 -16 -28 -51q-3 -19 -3 -73v-291q0 -54 3 -73q6 -35 28 -51z" />
    <glyph glyph-name="r" unicode="r" 
d="M450 897l175 141q54 44 90 56q36 13 110 13h88q96 0 157 -33q76 -40 113.5 -109.5t37.5 -169.5q0 -69 -29 -98t-69 -29t-69 29t-29 82v24q0 44 -25 75q-27 33 -78 33h-79q-37 0 -53 -5q-17 -6 -44 -27l-296 -243v-472q0 -62 -2 -80q-5 -41 -38 -65q-27 -19 -58 -19
q-54 0 -84 47q-14 22 -14 117v780q0 61 2 79q5 41 38 65q26 19 58 19q53 0 84 -47q14 -22 14 -116v-47z" />
    <glyph glyph-name="s" unicode="s" 
d="M566 1107h350q62 0 101 -8q39 -7 79 -40l55 -47q45 -38 45 -84q0 -42 -31 -70t-71 -28q-36 0 -63 22q-6 5 -29 32q-25 27 -87 27h-349q-39 0 -51 -7q-30 -15 -30 -51q0 -28 24 -44q6 -4 41 -20l500 -227q88 -40 129.5 -105.5t41.5 -165.5q0 -140 -96 -222
q-82 -69 -205 -69h-354q-138 -1 -202 46l-49 38q-61 46 -61 95q0 32 24 60q30 36 79 36q43 0 84 -44q31 -34 125 -35h316q59 0 81 14q48 29 48 94q0 60 -69 91l-510 232q-154 70 -154 235q0 81 49 142q81 103 239 103z" />
    <glyph glyph-name="t" unicode="t" 
d="M649 1107h304q61 0 79 -2q41 -5 65 -38q19 -26 19 -58q0 -53 -47 -84q-22 -14 -116 -14h-304v-564q0 -75 17 -107q25 -44 89 -44h152q50 0 74.5 19t37.5 68q12 41 39 60q29 21 62 21q51 0 82 -42q18 -25 18 -57q0 -80 -70 -165q-81 -100 -244 -100h-152q-146 1 -235 107
q-53 63 -62 144q-4 28 -4 97v563h-36q-61 0 -79 2q-41 5 -65 39q-19 25 -19 57q0 47 31.5 72.5t88.5 25.5h43h36v173q0 61 2 79q5 41 39 65q26 19 57 19q54 0 84 -46q14 -22 14 -117v-173z" />
    <glyph glyph-name="u" unicode="u" 
d="M1025 170l-182 -117q-48 -31 -79 -40q-42 -14 -93 -13h-108q-123 -4 -214 86q-52 53 -69 128q-7 30 -9 100l-15 627l-1 26q-1 24 -1 31q0 51 26 78q30 31 72 31q53 0 83 -45q14 -22 17 -116l13 -605q-3 -145 114 -145h66q44 0 63 6q11 5 38 23l279 173v545q0 62 2 80
q5 40 39 65q25 19 57 19q53 0 84 -47q14 -21 14 -117v-780q0 -61 -2 -79q-5 -41 -39 -65q-26 -19 -57 -19q-53 0 -84 47q-14 21 -14 105v18z" />
    <glyph glyph-name="v" unicode="v" 
d="M737 205l288 655v84q0 61 2 79q5 40 39 65q25 19 57 19q53 0 84 -47q14 -22 14 -95v-56q0 -75 -2 -86q-3 -11 -34 -79l-291 -643q-28 -62 -50 -81q-24 -20 -56 -20h-101q-32 0 -57 20q-21 19 -49 81l-291 643q-31 68 -34 79q-2 11 -2 86v56q0 77 19 101q30 41 79 41
q53 0 84 -47q14 -22 14 -116v-84z" />
    <glyph glyph-name="w" unicode="w" 
d="M942 273l63 183l17 491q2 61 5 79q7 41 40 64q25 17 55 17q43 0 72 -31q26 -28 26 -78q0 -16 -1 -58l-18 -524l-107 -314q-21 -61 -39 -80q-23 -22 -63 -22h-53q-43 0 -63 20q-11 11 -43 59l-96 145l-96 -145q-32 -47 -43 -59q-20 -20 -64 -20h-52q-40 0 -63 22
q-19 19 -39 80l-108 314l-17 524q-1 38 -1 56q0 52 26 80q29 31 71 31q51 0 83 -44q14 -20 18 -116l17 -491l63 -183l107 183v154q0 62 2 80q5 41 39 65q25 19 57 19q54 0 84 -47q14 -22 14 -117v-154z" />
    <glyph glyph-name="x" unicode="x" 
d="M738 411l-266 -328q-29 -36 -54 -58q-27 -25 -63 -25t-65 25q-36 31 -36 76q0 30 23 62q7 9 43 51l285 340l-285 339q-40 46 -50 61q-16 25 -16 52q0 45 36 76q29 25 65 25q37 0 72 -33q22 -22 45 -50l266 -328l265 328q27 33 54 58t63 25t66 -25q35 -31 35 -76
q0 -30 -23 -61q-1 -2 -43 -52l-285 -339l285 -340q40 -46 50 -61q16 -25 16 -52q0 -45 -35 -76q-30 -25 -66 -25q-37 0 -72 33q-21 21 -45 50z" />
    <glyph glyph-name="y" unicode="y" 
d="M759 278l266 581v85q0 61 2 79q6 41 39 65q25 19 57 19q54 0 84 -47q14 -22 14 -95v-56q0 -74 -2 -86q-2 -10 -34 -80l-499 -1082q-22 -47 -41 -62q-25 -19 -79 -19h-149q-61 0 -79 2q-41 5 -65 39q-19 25 -19 57q0 47 31.5 72.5t88.5 25.5h43h108l146 304h-26
q-33 0 -54 19q-15 14 -37 62l-264 582q-31 68 -34 80q-2 11 -2 86v56q0 77 19 102q31 40 79 40q54 0 84 -47q14 -22 14 -116v-85l266 -581h43z" />
    <glyph glyph-name="z" unicode="z" 
d="M501 196h556q62 0 80 -2q41 -5 65 -38q19 -26 19 -58q0 -53 -47 -84q-22 -14 -117 -14h-639q-76 0 -103 8q-16 5 -32 21t-21 32q-8 27 -8 102v9q0 44 15 66q7 9 39 40l662 633h-498q-62 0 -80 2q-41 5 -65 39q-19 25 -19 57q0 47 31.5 72.5t88.5 25.5h44h585
q92 1 117 -14q25 -17 35 -37t12 -57v-55v-12q-1 -37 -12 -55q-7 -11 -29 -32z" />
    <glyph glyph-name="braceleft" unicode="{" 
d="M840 205h270q58 0 86 -14q51 -25 51 -88q0 -64 -51 -89q-28 -14 -86 -14h-270q-73 -4 -142 59q-64 64 -61 146v381q0 48 -32 80q-28 28 -80 28h-155q-58 0 -86 14q-51 26 -51 89q0 27 14.5 52t36.5 36q28 14 86 14h158q51 0 79 31q29 31 30 89v373q-2 74 49 134
q61 71 154 71h270q59 0 86 -13q51 -26 51 -89q0 -64 -51 -89q-28 -14 -86 -14h-270v-392q0 -123 -79 -203q38 -42 58.5 -94t20.5 -107v-391z" />
    <glyph glyph-name="bar" unicode="|" 
d="M840 1661v-1924q0 -136 -102 -136q-103 0 -103 136v1924q0 136 103 136q102 0 102 -136z" />
    <glyph glyph-name="braceright" unicode="}" 
d="M640 205v391q0 57 24 116q22 49 55 85q-78 79 -79 203v392h-270q-58 0 -86 14q-51 25 -51 89q0 63 51 89q27 13 86 13h270q93 0 154 -71q50 -59 49 -134v-373q1 -58 30 -89q28 -31 79 -31h158q59 0 86 -14q22 -11 36.5 -36t14.5 -52q0 -28 -14.5 -53t-36.5 -36
q-28 -14 -86 -14h-155q-52 0 -80 -28q-32 -32 -32 -80v-381q3 -82 -61 -146q-70 -63 -142 -59h-270q-58 0 -86 14q-51 25 -51 89q0 63 51 88q28 14 86 14h270z" />
    <glyph glyph-name="asciitilde" unicode="~" 
d="M279 1377l-115 92q45 96 97 160q96 120 232 120q90 0 273 -90q100 -49 135 -61q49 -17 88 -17q76 0 134 65q37 40 76 108l114 -92q-48 -105 -100 -166q-97 -116 -229 -116q-57 0 -140 34q-43 17 -129 58q-94 45 -130 58q-56 19 -99 19q-77 0 -135 -67q-34 -39 -72 -105z
" />
    <glyph glyph-name="Adieresis" unicode="&#xc4;" 
d="M973 258h-470l-63 -158q-20 -52 -44 -77q-22 -25 -60 -25q-36 0 -66 23q-38 31 -38 77q0 27 19 75l391 1005q26 69 96 69q38 0 68 -27q19 -19 28 -42l390 -1004q19 -48 19 -76q0 -53 -48 -83q-26 -17 -57 -17q-38 0 -60 25q-24 27 -44 78zM893 463l-156 398l-155 -398
h311zM433 1461v-104q0 -57 -14 -85q-26 -51 -88 -51t-88 51q-14 28 -14 85v104q0 58 14 85q26 51 88 51t88 -51q14 -27 14 -85zM1246 1461v-104q0 -58 -13 -85q-12 -22 -37 -36.5t-52 -14.5q-62 0 -88 51q-14 28 -14 85v104q0 58 14 85q26 51 88 51q27 0 52 -14.5t37 -36.5
q13 -27 13 -85z" />
    <glyph glyph-name="Aring" unicode="&#xc5;" 
d="M967 346h-458l-69 -241q-16 -56 -37 -79q-27 -29 -71 -29q-43 0 -74 32q-27 28 -27 67q0 24 12 66l255 879q-68 12 -117 65q-53 59 -52 133v152q0 87 60 148q58 58 143 58h405q92 0 153 -66q48 -53 52 -140v-145q0 -75 -47 -132t-127 -73l261 -879q14 -44 14 -68
q0 -37 -28 -65q-30 -32 -74 -32t-71 29q-20 23 -36 80zM904 550l-145 491h-49l-143 -491h337zM937 1246v146h-405v-146h405z" />
    <glyph glyph-name="Ccedilla" unicode="&#xc7;" 
d="M1111 0h-355q-188 8 -270 174l-212 426q-45 91 -45 199q0 104 47 199l210 425q91 175 280 174h345q58 0 85 -13q51 -26 51 -89t-51 -89q-27 -14 -85 -14h-338q-77 3 -104 -63l-202 -402q-33 -66 -33 -133q0 -54 33 -121l197 -399q31 -71 117 -69h330q57 0 85 -14
q51 -25 51 -88t-51 -89q-27 -14 -85 -14zM1022 -298l-136 -89q-47 -30 -80 -30q-41 0 -74 35q-27 31 -27 74q0 52 67 96l136 88q47 31 80 31q42 0 74 -36q28 -30 28 -73q0 -52 -68 -96z" />
    <glyph glyph-name="Eacute" unicode="&#xc9;" 
d="M435 205h675q58 0 86 -14q51 -25 51 -88t-51 -89q-28 -14 -86 -14h-880v1246h880q59 0 86 -14q51 -25 51 -88t-51 -89q-28 -14 -86 -14h-675v-317h274q136 0 136 -103q0 -102 -136 -102h-274v-314zM942 1393l-135 -88q-47 -30 -80 -30q-42 0 -74 36q-28 30 -28 73
q0 52 68 96l136 88q46 31 79 31q42 0 75 -36q27 -30 27 -72q0 -54 -68 -98z" />
    <glyph glyph-name="Ntilde" unicode="&#xd1;" 
d="M1042 320v790q0 58 13 85q26 51 88 51q103 0 103 -136v-1110h-255l-557 912v-776q0 -58 -14 -85q-26 -51 -88 -51q-51 0 -77 34.5t-26 101.5v1110h257zM747 1542l54 -35q56 -36 87 -36q37 0 52 45q26 79 107 79q42 0 71 -26q27 -24 27 -57q0 -66 -46 -131
q-70 -100 -211 -100q-70 0 -126 31q-15 9 -45 29q-21 14 -22 15l-35 21q-48 30 -82 30q-36 0 -51 -45q-26 -79 -106 -79q-42 0 -71 26q-27 24 -27 57q0 67 46 131q70 100 211 100q64 0 116 -26q24 -12 51 -29z" />
    <glyph glyph-name="Odieresis" unicode="&#xd6;" 
d="M491 144l-209 309q-54 80 -54 165q0 72 42 143l221 369q35 60 92 96q68 44 151 44q98 0 175 -61q41 -33 70 -79l226 -369q42 -67 42 -140q0 -84 -48 -155l-232 -346q-36 -54 -91 -84q-67 -36 -140 -36q-148 0 -245 144zM800 234l230 346q13 19 13 33q0 22 -17 49
l-222 363q-24 40 -69 40q-42 0 -66 -40l-218 -354q-18 -30 -18 -51q0 -19 14 -40l222 -337q25 -38 69 -38q42 0 62 29zM228 1353v108q0 58 14 85q25 51 88 51t88 -51q14 -27 14 -85v-108q0 -58 -14 -85q-25 -51 -88 -51q-62 0 -88 51q-14 27 -14 85zM1041 1353v108
q0 58 14 85q25 51 88 51t88 -51q14 -27 14 -85v-108q0 -58 -14 -85q-11 -22 -36 -36.5t-52 -14.5t-52 14.5t-36 36.5q-14 27 -14 85z" />
    <glyph glyph-name="Udieresis" unicode="&#xdc;" 
d="M1246 1113v-794q2 -136 -92 -230q-90 -89 -207 -89h-410q-141 7 -225 98t-83 221v793q0 135 103 135q63 0 88 -51q14 -27 14 -84v-793q0 -56 33 -85t96 -29h344q142 -8 134 129v779q0 53 16 84q26 50 88 50t88 -50q13 -27 13 -84zM434 1355v106q0 58 14 85q25 51 88 51
t88 -51q14 -27 14 -85v-106q0 -58 -14 -85q-25 -51 -88 -51q-62 0 -88 51q-14 27 -14 85zM839 1355v106q0 58 14 85q26 51 89 51t88 -51q14 -27 14 -85v-106q0 -58 -14 -85q-25 -51 -88 -51t-89 51q-14 27 -14 85z" />
    <glyph glyph-name="aacute" unicode="&#xe1;" 
d="M1009 685l-4 106q-5 128 -147 120h-243q-61 0 -79 2q-41 6 -65 39q-19 26 -19 57q0 47 31.5 72.5t88.5 25.5h43h269q143 3 238 -95q78 -86 78 -202l22 -643q2 -56 2 -59q0 -50 -26 -77q-29 -31 -69 -31q-39 0 -72 31q-24 22 -27 67l-159 -80q-36 -18 -73 -18h-240
q-118 -1 -205 75q-96 83 -96 212v136q-3 110 102 201q75 64 200 68h352q43 0 98 -7zM1020 310l-3 73q3 111 -114 113h-342q-43 0 -72 -23q-36 -30 -36 -76v-105q0 -43 35 -72q29 -24 67 -24h243zM942 1393l-135 -88q-47 -30 -80 -30q-42 0 -74 36q-28 31 -28 72q0 53 68 97
l136 88q47 31 80 31q41 0 74 -35q27 -31 27 -74q0 -53 -68 -97z" />
    <glyph glyph-name="agrave" unicode="&#xe0;" 
d="M1009 685l-4 106q-5 128 -147 120h-243q-61 0 -79 2q-41 6 -65 39q-19 26 -19 57q0 47 31.5 72.5t88.5 25.5h43h269q143 3 238 -95q78 -86 78 -202l22 -643q2 -56 2 -59q0 -50 -26 -77q-29 -31 -69 -31q-39 0 -72 31q-24 22 -27 67l-159 -80q-36 -18 -73 -18h-240
q-118 -1 -205 75q-96 83 -96 212v136q-3 110 102 201q75 64 200 68h352q43 0 98 -7zM1020 310l-3 73q3 111 -114 113h-342q-43 0 -72 -23q-36 -30 -36 -76v-105q0 -43 35 -72q29 -24 67 -24h243zM669 1305l-136 88q-68 45 -68 97q0 48 33 79q32 30 69 30q33 0 80 -31
l135 -88q68 -44 68 -96q0 -47 -33 -79q-31 -30 -69 -30q-32 0 -79 30z" />
    <glyph glyph-name="acircumflex" unicode="&#xe2;" 
d="M1009 685l-4 106q-5 128 -147 120h-243q-61 0 -79 2q-41 6 -65 39q-19 26 -19 57q0 47 31.5 72.5t88.5 25.5h43h269q143 3 238 -95q78 -86 78 -202l22 -643q2 -56 2 -59q0 -50 -26 -77q-29 -31 -69 -31q-39 0 -72 31q-24 22 -27 67l-159 -80q-36 -18 -73 -18h-240
q-118 -1 -205 75q-96 83 -96 212v136q-3 110 102 201q75 64 200 68h352q43 0 98 -7zM1020 310l-3 73q3 111 -114 113h-342q-43 0 -72 -23q-36 -30 -36 -76v-105q0 -43 35 -72q29 -24 67 -24h243zM780 1389h-85l-128 -83q-48 -31 -80 -31q-42 0 -74 36q-28 30 -28 73
q0 52 68 96l136 88q44 30 82 29h133q38 1 82 -29l136 -88q68 -44 68 -96q0 -47 -33 -79q-31 -30 -69 -30q-32 0 -80 31z" />
    <glyph glyph-name="adieresis" unicode="&#xe4;" 
d="M1009 685l-4 106q-5 128 -147 120h-243q-61 0 -79 2q-41 6 -65 39q-19 26 -19 57q0 47 31.5 72.5t88.5 25.5h43h269q143 3 238 -95q78 -86 78 -202l22 -643q2 -56 2 -59q0 -50 -26 -77q-29 -31 -69 -31q-39 0 -72 31q-24 22 -27 67l-159 -80q-36 -18 -73 -18h-240
q-118 -1 -205 75q-96 83 -96 212v136q-3 110 102 201q75 64 200 68h352q43 0 98 -7zM1020 310l-3 73q3 111 -114 113h-342q-43 0 -72 -23q-36 -30 -36 -76v-105q0 -43 35 -72q29 -24 67 -24h243zM388 1417v44q0 58 14 85q25 51 88 51t88 -51q14 -27 14 -85v-44
q0 -58 -14 -85q-25 -51 -88 -51q-62 0 -88 51q-14 27 -14 85zM882 1417v44q0 58 14 85q25 51 88 51t88 -51q14 -27 14 -85v-44q0 -58 -14 -85q-26 -51 -88 -51t-88 51q-14 27 -14 85z" />
    <glyph glyph-name="atilde" unicode="&#xe3;" 
d="M1009 685l-4 106q-5 128 -147 120h-243q-61 0 -79 2q-41 6 -65 39q-19 26 -19 57q0 47 31.5 72.5t88.5 25.5h43h269q143 3 238 -95q78 -86 78 -202l22 -643q2 -56 2 -59q0 -50 -26 -77q-29 -31 -69 -31q-39 0 -72 31q-24 22 -27 67l-159 -80q-36 -18 -73 -18h-240
q-118 -1 -205 75q-96 83 -96 212v136q-3 110 102 201q75 64 200 68h352q43 0 98 -7zM1020 310l-3 73q3 111 -114 113h-342q-43 0 -72 -23q-36 -30 -36 -76v-105q0 -43 35 -72q29 -24 67 -24h243zM746 1542l55 -35q55 -36 87 -36q36 0 51 45q27 79 107 79q42 0 71 -26
q27 -24 27 -57q0 -66 -46 -131q-70 -100 -211 -100q-70 0 -126 31q-15 9 -45 29q-20 14 -22 15l-34 21q-49 30 -83 30q-35 0 -50 -45q-27 -79 -107 -79q-42 0 -71 26q-27 24 -27 57q0 66 46 131q70 100 212 100q63 0 115 -26q26 -13 51 -29z" />
    <glyph glyph-name="aring" unicode="&#xe5;" 
d="M1030 98l-158 -80q-37 -18 -74 -18h-240q-118 -1 -205 75q-96 84 -96 212v136q-3 109 102 201q76 64 200 68h352q43 0 98 -7l-4 105q-3 73 -31 97q-27 23 -116 23h-331q-61 0 -79 2q-41 6 -65 39q-19 26 -19 56q0 61 64 88q25 11 89 12q-34 15 -69 50q-46 47 -46 105v141
q0 82 56 139q54 53 135 54h349q88 0 144 -62q44 -49 49 -131v-141q-3 -62 -39 -108q-38 -50 -107 -71q119 -25 172 -110q36 -59 39 -163l23 -643q1 -44 1 -57q0 -52 -25 -79q-30 -31 -69 -31q-40 0 -73 31q-24 22 -27 67zM593 1401v-137h349v137h-349zM1020 310l-3 73
q3 111 -114 113h-342q-43 0 -72 -23q-36 -30 -36 -76v-105q0 -43 35 -72q29 -24 68 -24h243z" />
    <glyph glyph-name="ccedilla" unicode="&#xe7;" 
d="M1065 0h-319q-68 0 -108 10q-57 14 -103 52l-184 156q-96 78 -97 217v238q1 139 97 217l184 156q40 34 87 47.5t124 13.5h319q61 0 79 -2q41 -5 65 -38q19 -26 19 -57q0 -54 -47 -84q-22 -15 -116 -15h-325q-41 0 -60 -7q-12 -4 -37 -26l-159 -135q-25 -21 -31 -45
q-3 -11 -3 -58v-172q0 -51 5 -66q8 -19 29 -37l159 -135q28 -24 44 -29q15 -5 53 -5h325q61 -1 79 -3q41 -5 65 -37q19 -26 19 -58q0 -53 -47 -84q-22 -14 -116 -14zM926 -298l-136 -89q-46 -30 -80 -30q-41 0 -73 36q-28 30 -28 73q0 52 68 96l135 88q47 31 80 31
q42 0 74 -36q28 -30 28 -72q0 -53 -68 -97z" />
    <glyph glyph-name="eacute" unicode="&#xe9;" 
d="M450 410v-45q0 -55 31 -83l59 -55q20 -18 42 -25q15 -6 54 -6h422q61 0 79 -2q41 -5 65 -38q19 -26 19 -58q0 -54 -47 -84q-22 -14 -116 -14h-415q-60 0 -93 3q-57 5 -92 35l-123 105q-53 45 -69 106q-12 47 -12 133v372q0 60 20 111q24 55 56 82l110 96q46 40 92 52
q44 12 121 12h192q102 2 173 -56l118 -95q86 -76 85 -216v-167q0 -76 -7 -102q-5 -16 -21.5 -32t-32.5 -21q-27 -8 -102 -8h-608zM1025 606v134q1 55 -30 82l-61 52q-36 34 -82 37h-216q-34 0 -50 -6q-14 -6 -34 -22l-62 -51q-28 -23 -35 -48q-5 -13 -5 -57v-121h575z
M942 1393l-135 -88q-47 -30 -80 -30q-42 0 -74 36q-28 31 -28 72q0 53 68 97l136 88q47 31 80 31q41 0 74 -35q27 -31 27 -74q0 -53 -68 -97z" />
    <glyph glyph-name="egrave" unicode="&#xe8;" 
d="M450 410v-45q0 -55 31 -83l59 -55q20 -18 42 -25q15 -6 54 -6h422q61 0 79 -2q41 -5 65 -38q19 -26 19 -58q0 -54 -47 -84q-22 -14 -116 -14h-415q-60 0 -93 3q-57 5 -92 35l-123 105q-53 45 -69 106q-12 47 -12 133v372q0 60 20 111q24 55 56 82l110 96q46 40 92 52
q44 12 121 12h192q102 2 173 -56l118 -95q86 -76 85 -216v-167q0 -76 -7 -102q-5 -16 -21.5 -32t-32.5 -21q-27 -8 -102 -8h-608zM1025 606v134q1 55 -30 82l-61 52q-36 34 -82 37h-216q-34 0 -50 -6q-14 -6 -34 -22l-62 -51q-28 -23 -35 -48q-5 -13 -5 -57v-121h575z
M669 1305l-136 88q-68 45 -68 97q0 48 33 79q32 30 69 30q33 0 80 -31l135 -88q68 -44 68 -96q0 -47 -33 -79q-31 -30 -69 -30q-32 0 -79 30z" />
    <glyph glyph-name="ecircumflex" unicode="&#xea;" 
d="M450 410v-45q0 -55 31 -83l59 -55q20 -18 42 -25q15 -6 54 -6h422q61 0 79 -2q41 -5 65 -38q19 -26 19 -58q0 -54 -47 -84q-22 -14 -116 -14h-415q-60 0 -93 3q-57 5 -92 35l-123 105q-53 45 -69 106q-12 47 -12 133v372q0 60 20 111q24 55 56 82l110 96q46 40 92 52
q44 12 121 12h192q102 2 173 -56l118 -95q86 -76 85 -216v-167q0 -76 -7 -102q-5 -16 -21.5 -32t-32.5 -21q-27 -8 -102 -8h-608zM1025 606v134q1 55 -30 82l-61 52q-36 34 -82 37h-216q-34 0 -50 -6q-14 -6 -34 -22l-62 -51q-28 -23 -35 -48q-5 -13 -5 -57v-121h575z
M780 1389h-85l-128 -83q-48 -31 -80 -31q-42 0 -74 36q-28 30 -28 73q0 52 68 96l136 88q44 30 82 29h133q38 1 82 -29l136 -88q68 -44 68 -96q0 -47 -33 -79q-31 -30 -69 -30q-32 0 -80 31z" />
    <glyph glyph-name="edieresis" unicode="&#xeb;" 
d="M450 410v-45q0 -55 31 -83l59 -55q20 -18 42 -25q15 -6 54 -6h422q61 0 79 -2q41 -5 65 -38q19 -26 19 -58q0 -54 -47 -84q-22 -14 -116 -14h-415q-60 0 -93 3q-57 5 -92 35l-123 105q-53 45 -69 106q-12 47 -12 133v372q0 60 20 111q24 55 56 82l110 96q46 40 92 52
q44 12 121 12h192q102 2 173 -56l118 -95q86 -76 85 -216v-167q0 -76 -7 -102q-5 -16 -21.5 -32t-32.5 -21q-27 -8 -102 -8h-608zM1025 606v134q1 55 -30 82l-61 52q-36 34 -82 37h-216q-34 0 -50 -6q-14 -6 -34 -22l-62 -51q-28 -23 -35 -48q-5 -13 -5 -57v-121h575z
M388 1417v44q0 58 14 85q25 51 88 51t88 -51q14 -27 14 -85v-44q0 -58 -14 -85q-25 -51 -88 -51q-62 0 -88 51q-14 27 -14 85zM882 1417v44q0 58 14 85q25 51 88 51t88 -51q14 -27 14 -85v-44q0 -58 -14 -85q-26 -51 -88 -51t-88 51q-14 27 -14 85z" />
    <glyph glyph-name="iacute" unicode="&#xed;" 
d="M643 911h-128q-61 0 -80 2q-41 6 -65 38q-19 27 -19 58q0 54 47 84q22 14 117 14h161q76 0 103 -7q15 -6 31 -22t21 -32q8 -27 8 -102v-748h121q61 0 79 -2q41 -5 65 -38q19 -26 19 -58q0 -54 -47 -84q-22 -14 -116 -14h-445q-61 0 -80 2q-41 6 -65 39q-19 26 -19 57
q0 54 47 84q22 14 117 14h128v715zM941 1393l-135 -88q-47 -30 -80 -30q-42 0 -74 36q-28 31 -28 72q0 53 68 97l136 88q47 31 80 31q41 0 74 -35q27 -31 27 -74q0 -53 -68 -97z" />
    <glyph glyph-name="igrave" unicode="&#xec;" 
d="M643 911h-128q-61 0 -80 2q-41 6 -65 38q-19 27 -19 58q0 54 47 84q22 14 117 14h161q76 0 103 -7q15 -6 31 -22t21 -32q8 -27 8 -102v-748h121q61 0 79 -2q41 -5 65 -38q19 -26 19 -58q0 -54 -47 -84q-22 -14 -116 -14h-445q-61 0 -80 2q-41 6 -65 39q-19 26 -19 57
q0 54 47 84q22 14 117 14h128v715zM669 1305l-136 88q-68 45 -68 97q0 48 33 79q32 30 69 30q33 0 80 -31l135 -88q68 -44 68 -96q0 -47 -33 -79q-31 -30 -69 -30q-32 0 -79 30z" />
    <glyph glyph-name="icircumflex" unicode="&#xee;" 
d="M643 911h-128q-61 0 -80 2q-41 6 -65 38q-19 27 -19 58q0 54 47 84q22 14 117 14h161q76 0 103 -7q15 -6 31 -22t21 -32q8 -27 8 -102v-748h121q61 0 79 -2q41 -5 65 -38q19 -26 19 -58q0 -54 -47 -84q-22 -14 -116 -14h-445q-61 0 -80 2q-41 6 -65 39q-19 26 -19 57
q0 54 47 84q22 14 117 14h128v715zM780 1389h-85l-128 -83q-48 -31 -80 -31q-42 0 -74 36q-28 30 -28 73q0 52 68 96l136 88q44 30 82 29h133q38 1 82 -29l136 -88q68 -44 68 -96q0 -47 -33 -79q-31 -30 -69 -30q-32 0 -80 31z" />
    <glyph glyph-name="idieresis" unicode="&#xef;" 
d="M643 911h-128q-61 0 -80 2q-41 6 -65 38q-19 27 -19 58q0 54 47 84q22 14 117 14h161q76 0 103 -7q15 -6 31 -22t21 -32q8 -27 8 -102v-748h121q61 0 79 -2q41 -5 65 -38q19 -26 19 -58q0 -54 -47 -84q-22 -14 -116 -14h-445q-61 0 -80 2q-41 6 -65 39q-19 26 -19 57
q0 54 47 84q22 14 117 14h128v715zM419 1417v44q0 58 14 85q25 51 88 51t88 -51q14 -27 14 -85v-44q0 -58 -14 -85q-25 -51 -88 -51q-62 0 -88 51q-14 27 -14 85zM849 1417v44q0 58 14 85q25 51 88 51t88 -51q14 -27 14 -85v-44q0 -58 -14 -85q-26 -51 -88 -51t-88 51
q-14 27 -14 85z" />
    <glyph glyph-name="ntilde" unicode="&#xf1;" 
d="M450 938l182 116q48 31 79 40q43 13 93 13h108q123 4 214 -86q52 -52 69 -128q7 -29 9 -100l16 -627v-26q1 -19 1 -29q0 -52 -27 -80q-29 -31 -71 -31q-52 0 -83 45q-14 21 -16 116l-14 605q4 145 -114 145h-66q-43 0 -63 -7q-11 -4 -38 -22l-279 -173v-545q0 -62 -2 -80
q-5 -41 -38 -65q-27 -19 -58 -19q-54 0 -84 47q-14 22 -14 117v780q0 61 2 79q5 41 38 65q26 19 58 19q40 0 69 -29q28 -28 29 -91v-43v-6zM746 1542l55 -35q55 -36 87 -36q36 0 51 45q27 79 107 79q42 0 71 -26q27 -24 27 -57q0 -66 -46 -131q-70 -100 -211 -100
q-70 0 -126 31q-15 9 -45 29q-20 14 -22 15l-34 21q-49 30 -83 30q-35 0 -50 -45q-27 -79 -107 -79q-42 0 -71 26q-27 24 -27 57q0 66 46 131q70 100 212 100q63 0 115 -26q26 -13 51 -29z" />
    <glyph glyph-name="oacute" unicode="&#xf3;" 
d="M1129 138l-75 -63q-94 -76 -212 -75h-209q-66 0 -112 16q-50 18 -100 59l-75 63q-90 76 -92 204v423q2 129 92 204l75 63q50 41 100 59q46 16 112 16h209q118 2 212 -75l75 -63q90 -75 92 -204v-423q-2 -129 -92 -204zM660 196h155q48 0 70 9q21 9 44 27l54 44
q41 34 42 90v375q-1 56 -42 90l-54 44q-26 21 -52 29q-19 7 -62 7h-155q-48 0 -70 -10q-22 -8 -44 -26l-54 -44q-41 -34 -42 -90v-375q1 -56 42 -90l54 -44q26 -21 52 -30q19 -6 62 -6zM942 1393l-135 -88q-47 -30 -80 -30q-42 0 -74 36q-28 31 -28 72q0 53 68 97l136 88
q47 31 80 31q41 0 74 -35q27 -31 27 -74q0 -53 -68 -97z" />
    <glyph glyph-name="ograve" unicode="&#xf2;" 
d="M1129 138l-75 -63q-94 -76 -212 -75h-209q-66 0 -112 16q-50 18 -100 59l-75 63q-90 76 -92 204v423q2 129 92 204l75 63q50 41 100 59q46 16 112 16h209q118 2 212 -75l75 -63q90 -75 92 -204v-423q-2 -129 -92 -204zM660 196h155q48 0 70 9q21 9 44 27l54 44
q41 34 42 90v375q-1 56 -42 90l-54 44q-26 21 -52 29q-19 7 -62 7h-155q-48 0 -70 -10q-22 -8 -44 -26l-54 -44q-41 -34 -42 -90v-375q1 -56 42 -90l54 -44q26 -21 52 -30q19 -6 62 -6zM669 1305l-136 88q-68 45 -68 97q0 48 33 79q32 30 69 30q33 0 80 -31l135 -88
q68 -44 68 -96q0 -47 -33 -79q-31 -30 -69 -30q-32 0 -79 30z" />
    <glyph glyph-name="ocircumflex" unicode="&#xf4;" 
d="M1129 138l-75 -63q-94 -76 -212 -75h-209q-66 0 -112 16q-50 18 -100 59l-75 63q-90 76 -92 204v423q2 129 92 204l75 63q50 41 100 59q46 16 112 16h209q118 2 212 -75l75 -63q90 -75 92 -204v-423q-2 -129 -92 -204zM660 196h155q48 0 70 9q21 9 44 27l54 44
q41 34 42 90v375q-1 56 -42 90l-54 44q-26 21 -52 29q-19 7 -62 7h-155q-48 0 -70 -10q-22 -8 -44 -26l-54 -44q-41 -34 -42 -90v-375q1 -56 42 -90l54 -44q26 -21 52 -30q19 -6 62 -6zM780 1389h-85l-128 -83q-48 -31 -80 -31q-42 0 -74 36q-28 30 -28 73q0 52 68 96
l136 88q44 30 82 29h133q38 1 82 -29l136 -88q68 -44 68 -96q0 -47 -33 -79q-31 -30 -69 -30q-32 0 -80 31z" />
    <glyph glyph-name="odieresis" unicode="&#xf6;" 
d="M1129 138l-75 -63q-94 -76 -212 -75h-209q-66 0 -112 16q-50 18 -100 59l-75 63q-90 76 -92 204v423q2 129 92 204l75 63q50 41 100 59q46 16 112 16h209q118 2 212 -75l75 -63q90 -75 92 -204v-423q-2 -129 -92 -204zM660 196h155q48 0 70 9q21 9 44 27l54 44
q41 34 42 90v375q-1 56 -42 90l-54 44q-26 21 -52 29q-19 7 -62 7h-155q-48 0 -70 -10q-22 -8 -44 -26l-54 -44q-41 -34 -42 -90v-375q1 -56 42 -90l54 -44q26 -21 52 -30q19 -6 62 -6zM388 1417v44q0 58 14 85q25 51 88 51t88 -51q14 -27 14 -85v-44q0 -58 -14 -85
q-25 -51 -88 -51q-62 0 -88 51q-14 27 -14 85zM882 1417v44q0 58 14 85q25 51 88 51t88 -51q14 -27 14 -85v-44q0 -58 -14 -85q-26 -51 -88 -51t-88 51q-14 27 -14 85z" />
    <glyph glyph-name="otilde" unicode="&#xf5;" 
d="M1129 138l-75 -63q-94 -76 -212 -75h-209q-66 0 -112 16q-50 18 -100 59l-75 63q-90 76 -92 204v423q2 129 92 204l75 63q50 41 100 59q46 16 112 16h209q118 2 212 -75l75 -63q90 -75 92 -204v-423q-2 -129 -92 -204zM660 196h155q48 0 70 9q21 9 44 27l54 44
q41 34 42 90v375q-1 56 -42 90l-54 44q-26 21 -52 29q-19 7 -62 7h-155q-48 0 -70 -10q-22 -8 -44 -26l-54 -44q-41 -34 -42 -90v-375q1 -56 42 -90l54 -44q26 -21 52 -30q19 -6 62 -6zM746 1542l55 -35q55 -36 87 -36q36 0 51 45q27 79 107 79q42 0 71 -26q27 -24 27 -57
q0 -66 -46 -131q-70 -100 -211 -100q-70 0 -126 31q-15 9 -45 29q-20 14 -22 15l-34 21q-49 30 -83 30q-35 0 -50 -45q-27 -79 -107 -79q-42 0 -71 26q-27 24 -27 57q0 66 46 131q70 100 212 100q63 0 115 -26q26 -13 51 -29z" />
    <glyph glyph-name="uacute" unicode="&#xfa;" 
d="M1025 170l-182 -117q-48 -31 -79 -40q-42 -14 -93 -13h-108q-123 -4 -214 86q-52 53 -69 128q-7 30 -9 100l-15 627l-1 26q-1 24 -1 31q0 51 26 78q30 31 72 31q53 0 83 -45q14 -22 17 -116l13 -605q-3 -145 114 -145h66q44 0 63 6q11 5 38 23l279 173v545q0 62 2 80
q5 40 39 65q25 19 57 19q53 0 84 -47q14 -21 14 -117v-780q0 -61 -2 -79q-5 -41 -39 -65q-26 -19 -57 -19q-53 0 -84 47q-14 21 -14 105v18zM942 1393l-135 -88q-47 -30 -80 -30q-42 0 -74 36q-28 31 -28 72q0 53 68 97l136 88q47 31 80 31q41 0 74 -35q27 -31 27 -74
q0 -53 -68 -97z" />
    <glyph glyph-name="ugrave" unicode="&#xf9;" 
d="M1025 170l-182 -117q-48 -31 -79 -40q-42 -14 -93 -13h-108q-123 -4 -214 86q-52 53 -69 128q-7 30 -9 100l-15 627l-1 26q-1 24 -1 31q0 51 26 78q30 31 72 31q53 0 83 -45q14 -22 17 -116l13 -605q-3 -145 114 -145h66q44 0 63 6q11 5 38 23l279 173v545q0 62 2 80
q5 40 39 65q25 19 57 19q53 0 84 -47q14 -21 14 -117v-780q0 -61 -2 -79q-5 -41 -39 -65q-26 -19 -57 -19q-53 0 -84 47q-14 21 -14 105v18zM669 1305l-136 88q-68 45 -68 97q0 48 33 79q32 30 69 30q33 0 80 -31l135 -88q68 -44 68 -96q0 -47 -33 -79q-31 -30 -69 -30
q-32 0 -79 30z" />
    <glyph glyph-name="ucircumflex" unicode="&#xfb;" 
d="M1025 170l-182 -117q-48 -31 -79 -40q-42 -14 -93 -13h-108q-123 -4 -214 86q-52 53 -69 128q-7 30 -9 100l-15 627l-1 26q-1 24 -1 31q0 51 26 78q30 31 72 31q53 0 83 -45q14 -22 17 -116l13 -605q-3 -145 114 -145h66q44 0 63 6q11 5 38 23l279 173v545q0 62 2 80
q5 40 39 65q25 19 57 19q53 0 84 -47q14 -21 14 -117v-780q0 -61 -2 -79q-5 -41 -39 -65q-26 -19 -57 -19q-53 0 -84 47q-14 21 -14 105v18zM780 1389h-85l-128 -83q-48 -31 -80 -31q-42 0 -74 36q-28 30 -28 73q0 52 68 96l136 88q44 30 82 29h133q38 1 82 -29l136 -88
q68 -44 68 -96q0 -47 -33 -79q-31 -30 -69 -30q-32 0 -80 31z" />
    <glyph glyph-name="udieresis" unicode="&#xfc;" 
d="M1025 170l-182 -117q-48 -31 -79 -40q-42 -14 -93 -13h-108q-123 -4 -214 86q-52 53 -69 128q-7 30 -9 100l-15 627l-1 26q-1 24 -1 31q0 51 26 78q30 31 72 31q53 0 83 -45q14 -22 17 -116l13 -605q-3 -145 114 -145h66q44 0 63 6q11 5 38 23l279 173v545q0 62 2 80
q5 40 39 65q25 19 57 19q53 0 84 -47q14 -21 14 -117v-780q0 -61 -2 -79q-5 -41 -39 -65q-26 -19 -57 -19q-53 0 -84 47q-14 21 -14 105v18zM388 1417v44q0 58 14 85q25 51 88 51t88 -51q14 -27 14 -85v-44q0 -58 -14 -85q-25 -51 -88 -51q-62 0 -88 51q-14 27 -14 85z
M882 1417v44q0 58 14 85q25 51 88 51t88 -51q14 -27 14 -85v-44q0 -58 -14 -85q-26 -51 -88 -51t-88 51q-14 27 -14 85z" />
    <glyph glyph-name="dagger" unicode="&#x2020;" 
d="M840 1195h187q59 0 86 -14q51 -25 51 -88t-51 -89q-28 -14 -86 -14h-187v-854q0 -136 -102 -136q-27 0 -52 14.5t-36 36.5q-14 27 -14 85v854h-187q-58 0 -86 14q-51 26 -51 89t51 88q27 14 86 14h187v266q0 58 14 85q25 51 88 51q102 0 102 -136v-266z" />
    <glyph glyph-name="degree" unicode="&#xb0;" 
d="M355 995v438q0 68 49 117q47 47 114 47h439q68 0 114 -48q49 -51 49 -124v-441q0 -59 -47 -104q-51 -49 -116 -49h-445q-60 0 -107 46q-50 49 -50 118zM518 995h439v438h-439v-438z" />
    <glyph glyph-name="cent" unicode="&#xa2;" 
d="M887 240v-104q0 -136 -102 -136q-27 0 -52 14.5t-36 36.5q-14 27 -14 85v106q-84 9 -148 60l-184 156q-96 78 -97 217v238q1 139 97 217l184 156q64 53 148 59v117q0 57 14 85q25 50 88 50q102 0 102 -135v-115h177q62 0 80 -2q41 -5 65 -38q19 -25 19 -57q0 -54 -47 -84
q-23 -15 -117 -15h-177v-715h177q98 0 124 -19q40 -30 40 -79q0 -53 -47 -84q-22 -14 -117 -14h-177zM683 1145l-199 -161q-24 -20 -31 -46q-3 -11 -3 -58v-172q0 -51 5 -66q8 -20 29 -37l199 -163v703z" />
    <glyph glyph-name="sterling" unicode="&#xa3;" 
d="M437 924h383q58 0 86 -14q51 -25 51 -88t-51 -89q-28 -14 -86 -14h-383v-514h671q58 0 85 -14q51 -25 51 -88t-51 -89q-27 -14 -85 -14h-876v719h-72q-57 0 -85 14q-51 25 -51 89q0 63 51 88q28 14 85 14h71v240q-1 137 97 217l185 156q79 62 210 60h319q62 0 80 -2
q40 -5 65 -38q18 -25 18 -57q0 -54 -46 -84q-21 -13 -117 -15h-325q-41 0 -60 -7q-13 -5 -36 -25l-151 -135q-35 -31 -35 -62l2 -144v-104z" />
    <glyph glyph-name="section" unicode="&#xa7;" 
d="M1001 499q55 -23 87 -45q109 -73 109 -209q0 -81 -49 -142q-81 -103 -239 -103h-350q-61 0 -102 8q-39 8 -78 40l-55 47q-45 38 -45 84q0 42 31 70t72 28q35 0 62 -22q6 -5 29 -32q25 -27 87 -27h349q39 0 51 7q30 16 30 50q0 29 -24 45q-6 4 -41 20l-500 227
q-75 34 -110 77q-62 77 -62 195q0 138 97 220q58 48 124 61q-55 24 -87 45q-109 73 -109 209q0 81 49 142q81 103 239 103h350q63 0 101 -8q39 -7 79 -40l55 -47q45 -38 45 -84q0 -42 -31 -70t-72 -28q-35 0 -63 22q-5 5 -28 32q-26 28 -87 27h-349q-39 0 -52 -7
q-29 -15 -29 -51q0 -28 24 -44q6 -4 41 -20l500 -226q88 -40 129.5 -105.5t41.5 -165.5q0 -139 -97 -221q-57 -48 -123 -62zM588 687h294q59 0 81 14q48 29 48 94q0 60 -69 91l-55 25h-295q-59 0 -81 -13q-48 -29 -48 -95q0 -49 40 -75q17 -11 85 -41z" />
    <glyph glyph-name="bullet" unicode="&#x2022;" 
d="M178 0v1698h1118v-1698h-1118z" />
    <glyph glyph-name="paragraph" unicode="&#xb6;" 
d="M653 677q-182 0 -284 65q-93 60 -143 159q-52 102 -52 231q0 158 76 273q81 124 243 168q88 24 259 24h478q39 0 66 -15q41 -25 41 -77q0 -89 -107 -89h-16v-1697q0 -57 -28 -88q-27 -30 -72 -30q-49 0 -77 33q-27 31 -27 85v1697h-151v-1697q0 -57 -28 -88
q-28 -30 -73 -30q-49 0 -78 34q-27 31 -27 84v958z" />
    <glyph glyph-name="germandbls" unicode="&#xdf;" 
d="M1051 817q40 -45 53 -75q21 -49 21 -117v-435q2 -78 -58 -138q-48 -50 -131 -52h-272q-53 0 -79 13q-47 24 -47 82t47 82q26 13 79 13h160q65 0 88 19q25 19 24 61v339q0 55 -26 84t-76 29h-94q-53 0 -78 13q-47 24 -47 81t47 81q25 13 78 13h95q43 0 71 30q24 28 25 88
v160q-3 79 -11 96q-17 32 -117 33h-171q-79 0 -101 -10q-81 -35 -81 -133v-1250q0 -61 -2 -79q-5 -41 -38 -65q-26 -19 -58 -19q-53 0 -84 47q-13 20 -14 116v1251q0 113 54.5 195.5t155.5 120.5q64 23 168 23h304q75 -1 127 -46q60 -53 58 -117v-371q-3 -101 -70 -163z" />
    <glyph glyph-name="registered" unicode="&#xae;" 
d="M313 1597h850q85 0 143 -60q60 -63 60 -154v-1192q0 -74 -59 -130q-62 -61 -144 -61h-857q-75 0 -134 58q-62 61 -62 147v1187q0 85 61 147q59 58 142 58zM344 166h788q70 -2 68 68v1129q2 70 -68 68h-788q-70 2 -68 -68v-1129q-2 -70 68 -68zM595 791v-351
q0 -50 -21.5 -76t-61.5 -26q-41 0 -62 26t-21 76v819h426q83 -1 141 -62q55 -59 53 -140v-50q2 -78 -50 -136q-61 -66 -155 -65h-55l234 -324q26 -35 26 -62q0 -31 -22 -55q-24 -27 -62 -27q-42 0 -79 50zM595 974h243q47 -1 46 33v43q3 43 -45 41h-244v-117z" />
    <glyph glyph-name="copyright" unicode="&#xa9;" 
d="M313 1597h850q85 0 143 -60q60 -63 60 -154v-1192q0 -74 -59 -130q-62 -61 -144 -61h-857q-75 0 -134 58q-62 61 -62 147v1187q0 85 61 147q59 58 142 58zM344 166h788q70 -2 68 68v1129q2 70 -68 68h-788q-70 2 -68 -68v-1129q-2 -70 68 -68zM947 339h-199
q-122 4 -175 110l-118 231q-28 54 -28 119q0 63 29 120l118 229q57 111 180 111h193q50 0 76 -21.5t26 -62.5q0 -84 -102 -84h-189q-27 0 -36 -17l-112 -218q-17 -32 -17 -59q0 -21 17 -54l110 -216q10 -20 42 -20h185q102 0 102 -84q0 -41 -26.5 -62.5t-75.5 -21.5z" />
    <glyph glyph-name="trademark" unicode="&#x2122;" 
d="M297 1429h-61q-1 -33 -10 -51q-23 -44 -73 -44q-41 0 -62 26.5t-21 75.5v161h620v-160q0 -51 -21 -77t-62 -26q-50 0 -72 44q-10 18 -10 51h-62v-650q0 -50 -21 -76t-62 -26q-40 0 -61.5 26t-21.5 76v650zM1095 1419l127 178h183v-818q0 -34 -10 -57q-20 -45 -73 -45
q-40 0 -61.5 26.5t-21.5 75.5v556l-62 -86v0q0 -50 -21 -76t-61 -26q-49 0 -73 44q-9 17 -9 34v9q1 6 1 8q0 5 -1 7l-62 86v-555q0 -50 -21.5 -76.5t-61.5 -26.5t-61.5 26.5t-21.5 76.5v817h183z" />
    <glyph glyph-name="acute" unicode="&#xb4;" 
d="M941 1393l-135 -88q-47 -30 -80 -30q-42 0 -74 36q-28 31 -28 72q0 53 68 97l136 88q47 31 80 31q41 0 74 -35q27 -31 27 -74q0 -53 -68 -97z" />
    <glyph glyph-name="dieresis" unicode="&#xa8;" 
d="M388 1417v44q0 58 14 85q25 51 88 51t88 -51q14 -27 14 -85v-44q0 -58 -14 -85q-25 -51 -88 -51q-62 0 -88 51q-14 27 -14 85zM882 1417v44q0 58 14 85q25 51 88 51t88 -51q14 -27 14 -85v-44q0 -58 -14 -85q-26 -51 -88 -51t-88 51q-14 27 -14 85z" />
    <glyph glyph-name="notequal" unicode="&#x2260;" 
d="M669 521l-86 -149q-18 -32 -35 -50q-28 -30 -70 -30q-45 0 -76 34q-26 29 -26 61q0 33 31 87l27 47h-68q-58 0 -85 14q-51 26 -51 88q0 27 14.5 52t36.5 36q27 14 85 14h186l133 231h-319q-58 0 -85 14q-51 26 -51 88q0 27 14.5 52t36.5 36q27 14 85 14h437l86 149
q20 34 35 50q28 30 70 30q46 0 76 -34q26 -29 26 -61q0 -34 -31 -87l-27 -47h72q58 0 85 -14q51 -25 51 -88q0 -62 -51 -88q-27 -14 -85 -14h-190l-133 -231h323q58 0 85 -14q51 -25 51 -88q0 -62 -51 -88q-27 -14 -85 -14h-441z" />
    <glyph glyph-name="AE" unicode="&#xc6;" 
d="M901 1392l31 -493h223q58 0 85 -14q51 -25 51 -88t-51 -88q-27 -14 -85 -14h-211l30 -490h239q58 0 85 -14q51 -25 51 -88t-51 -89q-27 -14 -85 -14h-309q-120 -4 -130 108l-13 241h-308l-94 -249q-14 -37 -25 -56q-24 -46 -81 -46q-42 0 -71 28q-31 29 -31 69
q0 29 16 72l509 1359q25 73 105 71h432q58 0 85 -13q51 -26 51 -89q0 -64 -51 -89q-27 -14 -85 -14h-312zM751 554l-28 556l-191 -556h219z" />
    <glyph glyph-name="Oslash" unicode="&#xd8;" 
d="M379 386l-102 211q-48 99 -48 207q0 111 47 204l223 438q31 61 84 100q69 51 155 51q162 0 248 -169l54 92q21 34 35 49q29 28 69 28q46 0 76 -34q25 -29 25 -61t-32 -86l-117 -201l100 -207q50 -101 50 -206q0 -115 -45 -205l-225 -452q-32 -64 -92 -101
q-70 -44 -144 -44q-82 0 -146 42.5t-105 123.5l-50 -85q-21 -37 -35 -51q-30 -30 -71 -30q-46 0 -77 35q-26 29 -26 62q0 34 31 87zM863 1217l-68 136q-20 39 -58 39t-57 -39l-207 -414q-39 -79 -39 -140t43 -152l24 -50zM611 379l65 -128q23 -46 64 -46q38 0 57 37l211 421
q34 69 34 141q0 42 -34 122l-34 79z" />
    <glyph glyph-name="infinity" unicode="&#x221e;" 
d="M740 687q-54 -66 -102 -108q-118 -103 -269 -103q-156 0 -250 107q-83 94 -83 236q0 144 89 237q95 98 245 98q197 0 365 -211q53 67 101 108q119 103 268 103q162 0 257 -112q77 -91 77 -229q0 -148 -91 -240q-95 -96 -243 -96q-141 0 -261 101q-49 42 -103 109z
M847 815q116 -147 242 -147q68 0 111 41q45 42 45 107q0 70 -52 112q-43 35 -106 35q-99 0 -186 -86q-11 -11 -33 -36t-21 -26zM628 814q-34 42 -62 69q-85 80 -182 80q-69 0 -111 -41q-44 -42 -44 -108q0 -71 51 -112q43 -35 107 -35q100 0 186 85q10 11 32.5 36t22.5 26z
" />
    <glyph glyph-name="plusminus" unicode="&#xb1;" 
d="M635 895v268q0 58 14 85q26 51 88 51q63 0 89 -51q13 -26 13 -84v-269h269q57 0 85 -14q51 -25 51 -88t-51 -88q-28 -14 -85 -14h-269v-267q0 -58 -13 -85q-12 -22 -37 -36.5t-52 -14.5q-62 0 -88 51q-14 27 -14 85v267h-265q-58 0 -85 14q-51 25 -51 88t51 88
q27 14 85 14h265zM1110 0h-741q-58 0 -85 14q-51 26 -51 88q0 27 14.5 52t36.5 36q26 14 85 14h741q57 0 84 -14q22 -11 36.5 -36t14.5 -52q0 -62 -51 -88q-27 -14 -84 -14z" />
    <glyph glyph-name="lessequal" unicode="&#x2264;" 
d="M1182 0h-891q-58 0 -85 14q-51 26 -51 88q0 63 51 88q27 14 85 14h891q58 0 84 -14q51 -25 51 -88q0 -62 -51 -88q-27 -14 -84 -14zM490 973l723 -478q38 -26 53 -42q28 -30 28 -72q0 -54 -42 -87q-31 -25 -65 -25q-39 0 -98 39l-855 569q-56 37 -56 97t57 97l854 569
q59 39 98 39q40 0 73 -32q34 -33 34 -80t-38 -82q-11 -11 -43 -31z" />
    <glyph glyph-name="greaterequal" unicode="&#x2265;" 
d="M1182 0h-891q-58 0 -85 14q-51 26 -51 88q0 63 51 88q27 14 85 14h891q58 0 84 -14q51 -25 51 -88q0 -62 -51 -88q-27 -14 -84 -14zM982 973l-723 481q-38 25 -53 41q-28 31 -28 72q0 54 42 87q32 25 65 25q39 0 98 -39l854 -569q57 -37 57 -98q0 -59 -55 -96l-856 -569
q-59 -39 -98 -39q-40 0 -74 32q-33 33 -33 80t38 83q11 9 43 31z" />
    <glyph glyph-name="yen" unicode="&#xa5;" 
d="M840 748h187q58 0 85 -14q51 -25 51 -88t-51 -89q-28 -14 -85 -14h-187v-407q0 -67 -26 -101.5t-77 -34.5t-76.5 34t-25.5 102v407h-187q-57 0 -85 14q-51 26 -51 89t51 88q27 14 85 14h187v13l-405 524v176q0 58 14 85q25 51 88 51t88 -51q14 -27 14 -85v-105l304 -392
l303 392v105q0 58 14 85q25 51 88 51t88 -51q14 -27 14 -85v-176l-405 -524v-13z" />
    <glyph glyph-name="mu" unicode="&#xb5;" 
d="M463 15v-272q0 -5 2 -27q2 -20 2 -32q0 -46 -29 -75q-30 -29 -71 -29q-52 0 -83 47q-13 20 -14 116v578l-15 620q-1 40 -1 54q0 54 26 81q30 31 71 31q53 0 83 -45q15 -22 17 -116l13 -605q-3 -145 115 -145h66q43 0 63 6q11 5 38 23l279 173v545q0 62 2 80q5 41 39 65
q25 19 57 19q53 0 84 -47q14 -22 14 -117v-780q0 -61 -2 -79q-5 -41 -39 -65q-26 -19 -57 -19q-53 0 -84 47q-14 21 -14 105v18l-182 -117q-49 -31 -79 -40q-42 -14 -94 -13h-107q-54 0 -100 15z" />
    <glyph glyph-name="partialdiff" unicode="&#x2202;" 
d="M335 1434l25 168q196 -27 341 -86q146 -59 263.5 -168.5t190.5 -254.5q112 -226 112 -506q0 -263 -123 -420q-81 -103 -205 -155q-99 -41 -209 -41q-225 0 -373 162q-71 77 -110 178.5t-39 207.5q0 179 102 319q82 113 213 165q92 36 190 36q148 0 237 -70
q21 -17 101 -99l-10 26q-61 149 -90 193q-108 152 -291 246q-141 72 -325 99zM746 880q-118 0 -211 -76q-62 -50 -98 -129t-36 -165q0 -164 110 -273q97 -96 232 -96q116 0 207 79q124 109 124 299q0 173 -105 273q-92 88 -223 88z" />
    <glyph glyph-name="summation" unicode="&#x2211;" 
d="M1324 1797v-559h-191l-21 364h-802l594 -958l-592 -1050h822l12 369h199v-562h-1269v224l580 1019l-580 932v221h1248z" />
    <glyph glyph-name="product" unicode="&#x220f;" 
d="M56 1797h1363v-171h-176v-2054h176v-171h-543v171h177v2054h-631v-2054h175v-171h-541v171h177v2054h-177v171z" />
    <glyph glyph-name="pi" unicode="&#x3c0;" 
d="M279 0v956h-174v191h1264v-191h-172v-956h-197v956h-524v-956h-197z" />
    <glyph glyph-name="integral" unicode="&#x222b;" 
d="M351 -573l41 197q53 -25 95 -25q95 0 123 72q12 32 14 102q1 45 1 131v1353q0 122 3 207q6 145 67 221q93 112 266 112q58 0 163 -26l-42 -197q-54 25 -98 25q-86 0 -115 -64q-20 -41 -20 -179v-1469q0 -181 -14 -251q-13 -63 -56.5 -115t-104.5 -78q-97 -41 -207 -41
q-39 0 -89 16z" />
    <glyph glyph-name="ordfeminine" unicode="&#xaa;" 
d="M435 205h202v1384h609v-591q0 -58 -14 -85q-11 -22 -36 -36.5t-51 -14.5q-27 0 -52 14.5t-36 36.5q-14 26 -14 85v395h-202v-1393h-611v584q0 58 14 85q25 51 89 51q63 0 88 -51q14 -27 14 -85v-379z" />
    <glyph glyph-name="ordmasculine" unicode="&#xba;" 
d="M1046 696h-607v-560q0 -57 -14 -85q-26 -51 -88 -51q-63 0 -89 51q-14 28 -14 85v764h812v561q0 58 14 85q25 51 88 51t88 -51q14 -27 14 -85v-1325q0 -58 -14 -85q-25 -51 -88 -51q-62 0 -88 51q-14 27 -14 85v560z" />
    <glyph glyph-name="Omega" unicode="&#x2126;" 
d="M61 0v184h365q-369 246 -369 686q0 352 229 578q190 188 450 188q270 0 461 -193q106 -108 163.5 -257t57.5 -318q0 -440 -369 -684h365v-184h-572v171q139 90 217 200q146 207 146 468q0 271 -153 457q-128 155 -312 155q-187 0 -317 -155q-153 -182 -153 -459
q0 -435 363 -666v-171h-572z" />
    <glyph glyph-name="ae" unicode="&#xe6;" 
d="M755 129l-39 -54q-57 -77 -198 -75h-126q-110 -2 -189 75q-81 81 -80 212v136q-1 119 86 200q68 65 184 69h145q85 -3 104 -7v106q-1 74 -33 98q-32 22 -124 22h-75q-62 0 -80 2q-41 6 -65 38q-19 26 -19 58q0 54 47 84q22 14 117 14h133q116 1 173 -56l56 -57l40 49
q32 39 79 52q44 12 117 12h16q46 0 89 -13q50 -14 77 -43l93 -95q84 -82 85 -216v-166q0 -76 -7 -103q-5 -16 -21 -32t-32 -21q-28 -8 -103 -8h-367v-45q0 -35 8 -53q5 -10 23 -30l48 -55q25 -30 83 -31h205q61 0 79 -2q41 -5 65 -38q19 -26 19 -58q0 -54 -47 -84
q-22 -14 -116 -14h-207q-53 0 -88 3q-53 5 -78 35zM406 196h136q18 -1 28 12l62 69q12 15 11 27v93q0 47 -35 76q-28 23 -72 23h-125q-39 0 -63 -22q-28 -26 -29 -77v-105q1 -46 24 -72q22 -23 63 -24zM1172 606v134q2 47 -22 82l-45 52q-22 27 -57 37h-57q-47 1 -75 -28
l-46 -51q-33 -44 -32 -104v-122h334z" />
    <glyph glyph-name="oslash" unicode="&#xf8;" 
d="M1098 995l31 -26q90 -75 92 -204v-423q-2 -128 -92 -204l-75 -62q-50 -42 -100 -59q-47 -17 -112 -17h-209q-62 0 -104 14l-50 -86q-19 -33 -32 -47q-28 -28 -66 -28q-43 0 -72 32q-24 27 -24 58t29 81l55 95l-23 19q-90 76 -92 204v423q2 128 92 204l75 63q50 41 100 59
q46 16 112 16h209q40 0 49 -2q25 -6 28 -6q9 0 29 13l51 85q19 33 32 46q26 27 64 27q43 0 71 -32q23 -27 23 -57t-30 -80zM996 819l-361 -622h180q49 0 70 9q20 8 44 27l54 43q42 34 42 90v375q-1 49 -29 78zM472 296l359 615h-171q-68 0 -114 -36l-54 -44q-41 -34 -42 -90
v-375q1 -42 22 -70z" />
    <glyph glyph-name="questiondown" unicode="&#xbf;" 
d="M436 -19v-77l100 -87l514 440q55 48 93 48q46 0 77 -36q25 -30 25 -67q0 -48 -61 -100l-581 -498q-28 -24 -68 -24q-36 0 -64 24l-206 177q-34 29 -33 81v163q-1 53 42 88l565 487v89q0 58 13 85q11 22 36 36.5t52 14.5q63 0 88 -51q14 -27 14 -85v-141q-1 -45 -40 -78z
M942 1177q42 0 71 -30q29 -31 29 -72q0 -40 -30 -72q-29 -30 -71 -30q-43 0 -73 30t-30 72q0 43 30 72q31 30 74 30z" />
    <glyph glyph-name="exclamdown" unicode="&#xa1;" 
d="M596 -251l36 661q3 61 6 78q7 39 39 62q25 18 62 18q56 0 87 -44q14 -20 19 -114l36 -661q3 -51 3 -63q0 -106 -113 -106h-32q-80 0 -102 15q-44 31 -44 92q0 12 3 62zM703 1177h36q87 -1 105 -14q26 -18 36.5 -40t10.5 -59v-30q-1 -78 -14 -97q-17 -26 -40 -36
q-21 -11 -62 -11h-36q-84 0 -105 14q-47 32 -47 99v31q-1 76 19 102q17 23 38.5 32t58.5 9z" />
    <glyph glyph-name="logicalnot" unicode="&#xac;" 
d="M-1260 445v708h3994v-708h-3994z" />
    <glyph glyph-name="radical" unicode="&#x221a;" 
d="M1480 1981v-176h-340l-524 -1805h-233l-194 689h-195v176h318l176 -650l497 1766h495z" />
    <glyph glyph-name="florin" unicode="&#x192;" 
d="M705 911h-72q-103 0 -103 81q0 115 138 115h71l12 67q25 153 147 250q120 93 285 90h142q61 0 78 -2q41 -5 59 -39q10 -18 10 -40q0 -50 -42 -86q-29 -24 -72 -28q-12 -1 -68 -1h-154q-161 4 -188 -144l-12 -67h146q62 0 79 -2q40 -5 59 -39q10 -19 10 -40q0 -50 -43 -86
q-28 -24 -71 -28q-12 -1 -68 -1h-147l-129 -732q-32 -184 -40 -216.5t-27 -67.5q-67 -122 -200 -181q-81 -34 -191 -33h-142q-61 0 -78 2q-40 5 -59 39q-10 18 -10 40q0 50 42 86q29 24 72 28q12 1 68 1h154q76 1 119 29q57 40 69 115z" />
    <glyph glyph-name="approxequal" unicode="&#x2248;" 
d="M278 834l-115 79q49 104 96 160q99 120 234 120q87 0 268 -89q103 -51 139 -63q49 -17 89 -17q76 0 132 58q37 38 77 104l114 -79q-52 -111 -102 -170q-95 -112 -225 -112q-59 0 -142 34q-42 17 -125 56q-95 46 -133 59q-57 20 -102 20q-73 0 -131 -61q-35 -36 -74 -99z
M278 404l-115 79q49 103 96 160q98 120 234 120q87 0 268 -88q104 -50 139 -62q49 -17 89 -17q75 0 132 57q37 38 77 103l114 -79q-52 -111 -102 -169q-96 -113 -225 -113q-60 0 -142 33q-39 16 -125 58q-94 45 -133 58q-57 20 -102 20q-73 0 -131 -60q-35 -37 -74 -100z
" />
    <glyph glyph-name="Delta" unicode="&#x2206;" 
d="M2 0l625 1597h217l628 -1597h-1470zM273 184h923l-459 1188z" />
    <glyph glyph-name="guillemotleft" unicode="&#xab;" 
d="M693 664l636 -421q33 -22 46 -36q25 -28 25 -63q0 -48 -37 -78q-27 -22 -57 -22q-34 0 -86 35l-596 395q-16 11 -32 21q-38 25 -50 54q-5 14 -5 87v59v40q0 44 17 69q10 13 70 52l596 395q52 35 86 35q35 0 64 -29q30 -29 30 -71q0 -52 -71 -99zM201 664l636 -421
q33 -22 46 -36q25 -28 25 -63q0 -48 -37 -78q-27 -22 -56 -22q-35 0 -87 35l-596 395q-16 11 -32 21q-38 26 -50 54q-5 15 -5 87v59q0 78 10 98q11 20 77 63l596 395q52 35 86 35q35 0 64 -29q30 -29 30 -71q0 -52 -71 -99z" />
    <glyph glyph-name="guillemotright" unicode="&#xbb;" 
d="M781 664l-636 423q-71 47 -71 99q0 48 37 78q28 22 57 22q34 0 86 -35l596 -395q63 -42 72 -56q15 -22 15 -66v-39v-59q0 -79 -10 -99q-12 -20 -77 -63l-596 -395q-53 -35 -87 -35q-35 0 -63 29q-30 29 -30 71q0 41 33 72q10 8 38 27zM1273 664l-636 423q-33 22 -46 36
q-25 27 -25 63q0 49 37 78q28 22 57 22q35 0 86 -35l596 -395q65 -43 77 -63q10 -21 10 -98v-59q0 -79 -10 -99q-12 -20 -77 -63l-596 -395q-52 -35 -87 -35t-64 29t-29 71q0 41 33 72q10 8 38 27z" />
    <glyph glyph-name="ellipsis" unicode="&#x2026;" 
d="M291 256h-95q-46 0 -75 30t-29 73v171q0 39 26 69q30 35 79 35h94q44 0 74 -25q34 -32 34 -79v-166q0 -44 -26 -75q-30 -32 -82 -33zM783 256h-95q-46 1 -75 30q-29 30 -29 73v171q0 39 25 69q31 35 80 35h94q44 0 73 -25q35 -32 35 -79v-166q0 -44 -26 -75
q-30 -32 -82 -33zM1274 256h-95q-46 1 -75 30q-29 30 -29 73v171q0 39 26 69q30 35 79 35h94q44 0 73 -25q35 -32 35 -79v-166q0 -44 -27 -75q-29 -32 -81 -33z" />
    <glyph glyph-name="glyph172" 
 />
    <glyph glyph-name="Agrave" unicode="&#xc0;" 
d="M974 258h-471l-62 -158q-21 -52 -44 -77q-24 -25 -61 -25q-36 0 -65 23q-39 31 -39 77q0 26 20 75l390 1005q27 69 96 69q38 0 68 -27q20 -19 29 -42l390 -1004q19 -49 19 -76q0 -53 -48 -83q-27 -17 -57 -17q-38 0 -60 25q-24 27 -44 78zM893 463l-156 398l-155 -398
h311zM669 1305l-136 88q-68 45 -68 97q0 48 33 79q31 30 69 30q33 0 80 -31l136 -88q67 -44 67 -97q0 -46 -33 -78q-31 -30 -69 -30q-32 0 -79 30z" />
    <glyph glyph-name="Atilde" unicode="&#xc3;" 
d="M974 258h-471l-62 -158q-21 -52 -44 -77q-24 -25 -61 -25q-36 0 -65 23q-39 31 -39 77q0 26 20 75l390 1005q27 69 96 69q38 0 68 -27q20 -19 29 -42l390 -1004q19 -49 19 -76q0 -53 -48 -83q-27 -17 -57 -17q-38 0 -60 25q-24 27 -44 78zM893 463l-156 398l-155 -398
h311zM747 1542l54 -35q56 -36 87 -36q37 0 52 45q26 79 107 79q42 0 71 -26q27 -24 27 -57q0 -66 -46 -131q-69 -100 -212 -100q-69 0 -125 31q-15 9 -45 29q-21 15 -22 15l-35 21q-48 30 -82 30q-36 0 -51 -45q-26 -79 -106 -79q-42 0 -71 26q-27 24 -27 57q0 67 46 131
q70 100 211 100q64 0 116 -26q24 -12 51 -29z" />
    <glyph glyph-name="Otilde" unicode="&#xd5;" 
d="M491 144l-209 309q-54 80 -54 165q0 72 42 143l221 369q35 60 92 96q68 44 151 44q98 0 175 -61q41 -33 70 -79l226 -369q42 -67 42 -140q0 -84 -48 -155l-232 -346q-36 -54 -91 -84q-67 -36 -140 -36q-148 0 -245 144zM800 234l230 346q13 19 13 33q0 22 -17 49
l-222 363q-24 40 -69 40q-42 0 -66 -40l-218 -354q-18 -30 -18 -51q0 -19 14 -40l222 -337q25 -38 69 -38q42 0 62 29zM747 1542l54 -35q56 -36 87 -36q37 0 52 45q26 79 107 79q42 0 71 -26q27 -24 27 -57q0 -67 -46 -131q-70 -100 -212 -100q-69 0 -125 31q-15 9 -45 29
q-21 15 -23 15l-34 21q-48 30 -82 30q-36 0 -51 -45q-26 -79 -107 -79q-42 0 -71 26q-27 25 -27 57q0 66 46 131q69 100 212 100q64 0 116 -26q24 -12 51 -29z" />
    <glyph glyph-name="OE" unicode="&#x152;" 
d="M945 1392v-493h274q136 0 136 -102q0 -103 -136 -103h-274v-489h356q58 0 85 -14q51 -25 51 -88t-51 -89q-28 -14 -85 -14h-561q-80 0 -143.5 41t-101.5 116l-213 422q-53 106 -53 219q0 111 45 201l221 445q79 150 246 153h560q58 0 85 -13q51 -26 51 -89q0 -64 -51 -89
q-27 -14 -85 -14h-356zM740 1392q-40 3 -63 -37l-203 -410q-41 -83 -41 -147q0 -65 40 -146l200 -399q22 -50 67 -48v1187z" />
    <glyph glyph-name="oe" unicode="&#x153;" 
d="M819 961l56 82q23 33 70.5 48.5t126.5 15.5h16q53 0 97 -14.5t70 -41.5l93 -95q51 -54 68 -107q16 -49 16 -109v-167q0 -75 -7 -102q-5 -16 -21 -32t-32 -21q-28 -8 -103 -8h-368v-45q0 -36 8 -53q5 -10 23 -30l48 -55q25 -30 83 -31h206q61 0 79 -2q41 -5 65 -38
q19 -26 19 -58q0 -54 -47 -84q-22 -14 -116 -14h-207q-56 0 -88 3q-59 5 -79 35l-77 108l-84 -70q-93 -76 -212 -76h-49q-66 0 -113 17q-49 17 -99 59l-75 62q-90 76 -92 204v423q2 128 92 204l75 63q50 41 99 59q45 16 113 16h49q118 1 212 -75zM609 232l54 44q41 34 42 90
v375q-1 57 -42 90l-54 44q-44 36 -112 36q-67 0 -111 -36l-54 -44q-41 -34 -42 -90v-375q1 -56 42 -90l54 -44q44 -36 111 -36q68 0 112 36zM1236 606v134q2 47 -22 81l-45 53q-22 27 -58 37h-56q-47 1 -76 -29l-46 -50q-18 -20 -25 -43t-7 -62v-121h335z" />
    <glyph glyph-name="endash" unicode="&#x2013;" 
d="M1084 671h-694q-129 -4 -136 102v48q7 106 136 102h694q129 4 136 -102v-48q-7 -106 -136 -102z" />
    <glyph glyph-name="emdash" unicode="&#x2014;" 
d="M1264 671h-1054q-129 -4 -136 102v48q7 106 136 102h1054q129 4 136 -102v-48q-7 -106 -136 -102z" />
    <glyph glyph-name="quotedblleft" unicode="&#x201c;" 
d="M803 1137l59 360q16 100 101 100q82 0 98 -98l58 -362q12 -72 12 -97q0 -37 -25 -67q-34 -39 -105 -39h-40q-98 0 -124 20q-46 35 -46 85q0 26 12 98zM356 1137l59 360q16 100 101 100q82 0 98 -98l58 -362q12 -72 12 -97q0 -38 -25 -67q-34 -39 -105 -39h-40
q-98 0 -124 20q-46 35 -46 85q0 28 12 98z" />
    <glyph glyph-name="quotedblright" unicode="&#x201d;" 
d="M671 1393l-59 -359q-16 -101 -101 -101q-81 0 -97 98l-59 363q-12 73 -12 98q0 36 25 66q34 39 106 39h40q98 0 123 -19q46 -36 46 -87q0 -28 -12 -98zM1119 1393l-59 -359q-17 -101 -102 -101q-81 0 -97 98l-59 363q-11 70 -11 98q0 36 25 66q34 39 105 39h40
q99 0 124 -19q46 -36 46 -87q0 -26 -12 -98z" />
    <glyph glyph-name="quoteleft" unicode="&#x2018;" 
d="M580 1137l59 360q16 100 101 100q82 0 98 -98l58 -362q12 -72 12 -97q0 -38 -25 -67q-34 -39 -105 -39h-40q-98 0 -124 20q-46 35 -46 85q0 28 12 98z" />
    <glyph glyph-name="quoteright" unicode="&#x2019;" 
d="M895 1393l-59 -359q-16 -101 -101 -101q-81 0 -97 98l-59 363q-12 73 -12 98q0 36 25 66q34 39 106 39h40q98 0 123 -19q46 -36 46 -87q0 -28 -12 -98z" />
    <glyph glyph-name="divide" unicode="&#xf7;" 
d="M801 329h-125q-30 0 -49 19q-18 19 -18 47v109q0 25 16 44q20 23 51 23h125q30 0 49.5 -18.5t19.5 -48.5v-106q0 -28 -17 -48q-19 -21 -52 -21zM801 1110h-125q-30 0 -49 19q-18 19 -18 47v109q0 25 16 44q20 23 51 23h125q30 0 49.5 -19t19.5 -48v-106q0 -28 -17 -48
q-19 -21 -52 -21zM1110 728h-741q-58 0 -85 14q-22 11 -36.5 36t-14.5 52q0 26 14.5 51.5t36.5 36.5q26 13 85 13h741q58 0 84 -13q51 -26 51 -88q0 -63 -51 -88q-27 -14 -84 -14z" />
    <glyph glyph-name="lozenge" unicode="&#x25ca;" 
d="M737 1660l622 -861l-622 -861l-622 861zM737 1311l-370 -512l370 -512l370 512z" />
    <glyph glyph-name="ydieresis" unicode="&#xff;" 
d="M759 278l266 581v85q0 61 2 79q6 41 39 65q25 19 57 19q54 0 84 -47q14 -22 14 -95v-56q0 -74 -2 -86q-2 -10 -34 -80l-499 -1082q-22 -47 -41 -62q-25 -19 -79 -19h-149q-61 0 -79 2q-41 5 -65 39q-19 25 -19 57q0 47 31.5 72.5t88.5 25.5h43h108l146 304h-26
q-33 0 -54 19q-15 14 -37 62l-264 582q-31 68 -34 80q-2 11 -2 86v56q0 77 19 102q31 40 79 40q54 0 84 -47q14 -22 14 -116v-85l266 -581h43zM388 1417v44q0 58 14 85q25 51 88 51t88 -51q14 -27 14 -85v-44q0 -58 -14 -85q-25 -51 -88 -51q-62 0 -88 51q-14 27 -14 85z
M882 1417v44q0 58 14 85q25 51 88 51t88 -51q14 -27 14 -85v-44q0 -58 -14 -85q-26 -51 -88 -51t-88 51q-14 27 -14 85z" />
    <glyph glyph-name="Ydieresis" unicode="&#x178;" 
d="M738 612l303 393v105q0 58 14 85q25 51 88 51t88 -51q14 -27 14 -85v-176l-405 -525v-273q0 -136 -103 -136q-102 0 -102 136v273l-405 525v176q0 58 14 85q25 51 88 51t88 -51q14 -27 14 -85v-105zM388 1417v44q0 58 14 85q25 51 88 51t88 -51q14 -27 14 -85v-44
q0 -58 -14 -85q-25 -51 -88 -51q-62 0 -88 51q-14 27 -14 85zM882 1417v44q0 58 14 85q25 51 88 51t88 -51q14 -27 14 -85v-44q0 -58 -14 -85q-26 -51 -88 -51t-88 51q-14 27 -14 85z" />
    <glyph glyph-name="fraction" unicode="&#x2215;" 
d="M1304 1501l-962 -1660q-48 -84 -108 -84q-46 0 -64 38q-6 13 -6 31q0 59 34 118l962 1651q47 83 97 83q27 0 52 -22q26 -23 26 -62q0 -40 -31 -93z" />
    <glyph glyph-name="currency" unicode="&#xa4;" 
d="M636 695h-407v766q0 58 14 85q25 51 88 51t88 -51q14 -27 14 -85v-561h608v561q0 58 14 85q25 51 88 51t88 -51q14 -27 14 -85v-766h-405v-559q0 -58 -14 -85q-11 -22 -36 -36.5t-52 -14.5q-62 0 -88 51q-14 27 -14 85v559z" />
    <glyph glyph-name="guilsinglleft" unicode="&#x2039;" 
d="M455 682l651 -432q35 -23 47 -37q26 -28 26 -65q0 -49 -38 -79q-28 -22 -58 -22q-35 0 -89 36l-610 403q-66 44 -78 65q-10 20 -10 100v61q0 80 10 100q12 21 78 65l610 404q54 36 89 36q36 0 66 -29q30 -30 30 -73q0 -42 -35 -74q-9 -8 -38 -28z" />
    <glyph glyph-name="guilsinglright" unicode="&#x203a;" 
d="M1020 681l-651 432q-34 23 -47 38q-26 28 -26 64q0 49 38 80q28 22 58 22q34 0 89 -36l609 -404q11 -8 33 -22q39 -25 51 -54q5 -17 5 -89v-60q0 -80 -11 -101q-11 -20 -78 -64l-610 -404q-53 -36 -88 -36q-36 0 -66 29q-30 30 -30 72t35 74q9 9 38 28z" />
    <glyph glyph-name="fi" unicode="&#xf001;" 
d="M708 1107h225q76 0 102 -7q16 -5 32 -21.5t21 -31.5q8 -28 8 -103v-748h121q61 0 79 -2q41 -5 65 -38q19 -26 19 -58q0 -54 -47 -84q-22 -14 -116 -14h-445q-62 0 -80 2q-41 6 -65 39q-19 25 -19 57q0 54 47 84q22 14 117 14h128v715h-432v-748q0 -61 -2 -79
q-5 -41 -38 -65q-27 -19 -58 -19q-54 0 -84 47q-14 23 -14 116v748h-29q-61 0 -79 2q-41 6 -65 39q-19 25 -19 57q0 54 47 84q21 14 116 14h29v67q0 202 164 295q79 45 210 45q79 0 103 -19q41 -31 41 -79q0 -47 -31.5 -72.5t-88.5 -25.5h-38q-76 -1 -114 -30
q-49 -38 -50 -114v-67h179h44h9h8zM1127 1457v-28q0 -54 -29 -83t-98 -29q-68 0 -97 29t-29 83v28q0 73 14 93q18 27 39 37q12 5 80 5q55 0 67 -5q38 -18 48 -60q5 -18 5 -70z" />
    <glyph glyph-name="fl" unicode="&#xf002;" 
d="M1111 196h121q61 0 79 -2q41 -5 65 -38q19 -26 19 -58q0 -54 -47 -84q-22 -14 -116 -14h-445q-62 0 -80 2q-41 6 -65 39q-19 26 -19 57q0 54 47 84q22 14 117 14h128v1122h-268q-75 -1 -113 -30q-49 -38 -50 -114v-67h147q61 0 79 -2q41 -5 65 -38q19 -26 19 -58
q0 -54 -47 -84q-22 -14 -116 -14h-147v-748q0 -61 -2 -79q-5 -41 -38 -65q-27 -19 -58 -19q-54 0 -84 47q-14 22 -14 116v748h-29q-61 0 -79 2q-41 6 -65 38q-19 26 -19 58q0 47 31.5 72.5t88.5 25.5h43h29v67q-3 152 102 250q70 64 168 84q32 6 176 6h214q76 0 103 -7
q15 -6 31 -22t22 -32q7 -26 7 -102v-1155z" />
    <glyph glyph-name="daggerdbl" unicode="&#x2021;" 
d="M840 1195h187q59 0 86 -14q51 -25 51 -88t-51 -89q-28 -14 -86 -14h-187v-226h187q59 0 86 -13q51 -26 51 -89t-51 -89q-27 -14 -86 -14h-187v-423q0 -136 -102 -136q-27 0 -52 14.5t-36 36.5q-14 27 -14 85v423h-187q-59 0 -86 14q-51 26 -51 89t51 89q27 13 86 13h187
v226h-187q-58 0 -86 14q-51 26 -51 89t51 88q27 14 86 14h187v266q0 58 14 85q25 51 88 51q102 0 102 -136v-266z" />
    <glyph glyph-name="periodcentered" unicode="&#x2219;" 
d="M836 386h-196q-46 0 -75 30t-29 73v171q0 39 26 69q30 35 79 35h195q44 0 73 -25q35 -32 35 -79v-166q0 -44 -27 -75q-30 -32 -81 -33z" />
    <glyph glyph-name="quotesinglbase" unicode="&#x201a;" 
d="M895 430l-59 -359q-16 -100 -101 -100q-81 0 -97 98l-59 362q-12 73 -12 98q0 36 25 66q34 39 106 39h40q98 0 123 -19q46 -36 46 -87q0 -28 -12 -98z" />
    <glyph glyph-name="quotedblbase" unicode="&#x201e;" 
d="M671 430l-59 -359q-16 -100 -101 -100q-81 0 -97 98l-59 362q-12 73 -12 98q0 36 25 66q34 39 106 39h40q98 0 123 -19q46 -36 46 -87q0 -28 -12 -98zM1119 430l-59 -359q-17 -100 -102 -100q-81 0 -97 98l-59 362q-11 70 -11 98q0 36 25 66q34 39 105 39h40
q99 0 124 -19q46 -36 46 -87q0 -26 -12 -98z" />
    <glyph glyph-name="perthousand" unicode="&#x2030;" 
d="M932 1181l-686 -888q-51 -67 -102 -67q-35 0 -62 22q-40 31 -40 80q0 35 42 90l688 887q51 67 101 67q35 0 62 -21q40 -31 40 -80q0 -35 -43 -90zM139 1318v176q0 42 27 71q31 32 75 32h198q47 0 78 -30q29 -30 29 -73v-176q0 -44 -31 -73q-28 -28 -77 -28h-194
q-44 0 -73 25q-32 28 -32 76zM468 99v174q0 41 26 70q32 36 77 36h196q47 0 73 -24q34 -31 34 -82v-167q-1 -46 -26 -73q-31 -33 -74 -33h-206q-39 0 -69 28q-31 28 -31 71zM963 99v174q0 41 26 70q32 36 77 36h196q47 0 73 -24q34 -31 34 -82v-167q-1 -46 -26 -73
q-30 -33 -74 -33h-207q-38 0 -68 28q-31 28 -31 71z" />
    <glyph glyph-name="Acircumflex" unicode="&#xc2;" 
d="M974 258h-471l-62 -158q-21 -52 -44 -77q-24 -25 -61 -25q-36 0 -65 23q-39 31 -39 77q0 26 20 75l390 1005q27 69 96 69q38 0 68 -27q20 -19 29 -42l390 -1004q19 -49 19 -76q0 -53 -48 -83q-27 -17 -57 -17q-38 0 -60 25q-24 27 -44 78zM893 463l-156 398l-155 -398
h311zM780 1389h-85l-128 -83q-47 -31 -79 -31q-43 0 -75 36q-27 31 -27 73q0 52 67 96l136 88q45 29 83 29h132q38 0 82 -29l136 -88q68 -44 68 -97q0 -46 -33 -78q-32 -30 -69 -30q-32 0 -79 31z" />
    <glyph glyph-name="Ecircumflex" unicode="&#xca;" 
d="M435 205h675q58 0 86 -14q51 -25 51 -88t-51 -89q-28 -14 -86 -14h-880v1246h880q59 0 86 -14q51 -25 51 -88t-51 -89q-28 -14 -86 -14h-675v-317h274q136 0 136 -103q0 -102 -136 -102h-274v-314zM780 1389h-85l-128 -83q-47 -31 -79 -31q-42 0 -75 36q-27 30 -27 72
q0 53 68 97l135 88q45 29 83 29h132q38 0 83 -29l135 -88q68 -44 68 -97q0 -46 -33 -78q-31 -30 -69 -30q-32 0 -79 31z" />
    <glyph glyph-name="Aacute" unicode="&#xc1;" 
d="M974 258h-471l-62 -158q-21 -52 -44 -77q-24 -25 -61 -25q-36 0 -65 23q-39 31 -39 77q0 26 20 75l390 1005q27 69 96 69q38 0 68 -27q20 -19 29 -42l390 -1004q19 -49 19 -76q0 -53 -48 -83q-27 -17 -57 -17q-38 0 -60 25q-24 27 -44 78zM893 463l-156 398l-155 -398
h311zM942 1393l-136 -88q-47 -30 -79 -30q-42 0 -74 36q-28 30 -28 73q0 52 68 96l136 88q46 31 80 31q41 0 73 -35q28 -31 28 -73q0 -54 -68 -98z" />
    <glyph glyph-name="Edieresis" unicode="&#xcb;" 
d="M435 205h675q58 0 86 -14q51 -25 51 -88t-51 -89q-28 -14 -86 -14h-880v1246h880q59 0 86 -14q51 -25 51 -88t-51 -89q-28 -14 -86 -14h-675v-317h274q136 0 136 -103q0 -102 -136 -102h-274v-314zM388 1417v44q0 58 14 85q25 51 88 51t88 -51q14 -27 14 -85v-44
q0 -58 -14 -85q-11 -22 -36 -36.5t-52 -14.5q-62 0 -88 51q-14 27 -14 85zM882 1417v44q0 58 14 85q25 51 88 51t88 -51q14 -27 14 -85v-44q0 -58 -14 -85q-26 -51 -88 -51q-27 0 -52 14.5t-36 36.5q-14 27 -14 85z" />
    <glyph glyph-name="Egrave" unicode="&#xc8;" 
d="M435 205h675q58 0 86 -14q51 -25 51 -88t-51 -89q-28 -14 -86 -14h-880v1246h880q59 0 86 -14q51 -25 51 -88t-51 -89q-28 -14 -86 -14h-675v-317h274q136 0 136 -103q0 -102 -136 -102h-274v-314zM669 1305l-136 88q-68 45 -68 97q0 48 33 79q31 30 69 30q33 0 80 -31
l136 -88q67 -44 67 -97q0 -46 -33 -78q-31 -30 -69 -30q-32 0 -79 30z" />
    <glyph glyph-name="Iacute" unicode="&#xcd;" 
d="M841 1041v-836h268q58 0 85 -14q51 -25 51 -88q0 -64 -51 -89q-27 -14 -85 -14h-739q-58 0 -85 14q-52 26 -52 89t51 88q28 14 86 14h266v836h-271q-57 0 -85 14q-51 26 -51 89q0 27 14.5 52t36.5 36q27 14 85 14h744q58 0 85 -14q51 -25 51 -88q0 -64 -51 -89
q-27 -14 -85 -14h-268zM941 1393l-135 -88q-47 -30 -80 -30q-42 0 -74 36q-28 30 -28 72q0 53 68 97l136 88q47 31 79 31q43 0 75 -36q27 -30 27 -72q0 -54 -68 -98z" />
    <glyph glyph-name="Icircumflex" unicode="&#xce;" 
d="M841 1041v-836h268q58 0 85 -14q51 -25 51 -88q0 -64 -51 -89q-27 -14 -85 -14h-739q-58 0 -85 14q-52 26 -52 89t51 88q28 14 86 14h266v836h-271q-57 0 -85 14q-51 26 -51 89q0 27 14.5 52t36.5 36q27 14 85 14h744q58 0 85 -14q51 -25 51 -88q0 -64 -51 -89
q-27 -14 -85 -14h-268zM780 1389h-85l-129 -83q-47 -31 -79 -31q-42 0 -74 36q-28 30 -28 72q0 53 68 97l135 88q45 29 83 29h132q38 0 83 -29l135 -88q68 -44 68 -96q0 -47 -33 -79q-31 -30 -69 -30q-32 0 -79 31z" />
    <glyph glyph-name="Idieresis" unicode="&#xcf;" 
d="M841 1041v-836h268q58 0 85 -14q51 -25 51 -88q0 -64 -51 -89q-27 -14 -85 -14h-739q-58 0 -85 14q-52 26 -52 89t51 88q28 14 86 14h266v836h-271q-57 0 -85 14q-51 26 -51 89q0 27 14.5 52t36.5 36q27 14 85 14h744q58 0 85 -14q51 -25 51 -88q0 -64 -51 -89
q-27 -14 -85 -14h-268zM387 1417v44q0 58 14 85q25 51 88 51t88 -51q14 -27 14 -85v-44q0 -58 -14 -85q-11 -22 -36 -36.5t-52 -14.5q-62 0 -88 51q-14 27 -14 85zM881 1417v44q0 58 14 85q25 51 88 51t88 -51q14 -27 14 -85v-44q0 -58 -14 -85q-26 -51 -88 -51
q-63 0 -88 51q-14 27 -14 85z" />
    <glyph glyph-name="Igrave" unicode="&#xcc;" 
d="M841 1041v-836h268q58 0 85 -14q51 -25 51 -88q0 -64 -51 -89q-27 -14 -85 -14h-739q-58 0 -85 14q-52 26 -52 89t51 88q28 14 86 14h266v836h-271q-57 0 -85 14q-51 26 -51 89q0 27 14.5 52t36.5 36q27 14 85 14h744q58 0 85 -14q51 -25 51 -88q0 -64 -51 -89
q-27 -14 -85 -14h-268zM668 1305l-136 88q-67 44 -67 98q0 47 33 78q31 30 69 30q32 0 79 -31l136 -88q68 -44 68 -97q0 -46 -33 -78q-32 -30 -69 -30q-33 0 -80 30z" />
    <glyph glyph-name="Oacute" unicode="&#xd3;" 
d="M491 144l-209 309q-54 80 -54 165q0 72 42 143l221 369q35 60 92 96q68 44 151 44q98 0 175 -61q41 -33 70 -79l226 -369q42 -67 42 -140q0 -84 -48 -155l-232 -346q-36 -54 -91 -84q-67 -36 -140 -36q-148 0 -245 144zM800 234l230 346q13 19 13 33q0 22 -17 49
l-222 363q-24 40 -69 40q-42 0 -66 -40l-218 -354q-18 -30 -18 -51q0 -19 14 -40l222 -337q25 -38 69 -38q42 0 62 29zM942 1393l-136 -88q-47 -30 -79 -30q-42 0 -74 36q-28 31 -28 73q0 52 67 96l136 88q47 31 80 31q42 0 74 -35q28 -31 28 -74q0 -52 -68 -97z" />
    <glyph glyph-name="Ocircumflex" unicode="&#xd4;" 
d="M491 144l-209 309q-54 80 -54 165q0 72 42 143l221 369q35 60 92 96q68 44 151 44q98 0 175 -61q41 -33 70 -79l226 -369q42 -67 42 -140q0 -84 -48 -155l-232 -346q-36 -54 -91 -84q-67 -36 -140 -36q-148 0 -245 144zM800 234l230 346q13 19 13 33q0 22 -17 49
l-222 363q-24 40 -69 40q-42 0 -66 -40l-218 -354q-18 -30 -18 -51q0 -19 14 -40l222 -337q25 -38 69 -38q42 0 62 29zM780 1389h-85l-128 -83q-48 -31 -80 -31q-42 0 -74 36q-28 30 -28 73q0 52 68 96l136 88q45 30 82 29h133q38 0 82 -29l136 -88q68 -44 68 -97
q0 -46 -33 -78q-32 -30 -69 -30q-32 0 -80 31z" />
    <glyph glyph-name="apple" unicode="&#xf000;" 
d="M1089 1657q0 -165 -90 -278q-108 -132 -265 -138q3 172 96 280q107 121 259 136zM1432 1094q-74 -56 -110 -101q-83 -103 -83 -233q0 -169 124 -284q46 -42 114 -72q-76 -188 -163 -301q-129 -167 -239 -167q-57 0 -154 44q-58 27 -126 27q-80 0 -127 -16q-9 -3 -44 -17
q-97 -41 -147 -41q-60 0 -129 52t-131 143q-201 299 -201 616q0 109 38 212.5t105 176.5q116 127 303 127q62 0 127 -20q21 -7 75 -27q66 -25 101 -25t139 38q56 21 80 27q43 12 101 12q222 0 347 -171z" />
    <glyph glyph-name="Ograve" unicode="&#xd2;" 
d="M491 144l-209 309q-54 80 -54 165q0 72 42 143l221 369q35 60 92 96q68 44 151 44q98 0 175 -61q41 -33 70 -79l226 -369q42 -67 42 -140q0 -84 -48 -155l-232 -346q-36 -54 -91 -84q-67 -36 -140 -36q-148 0 -245 144zM800 234l230 346q13 19 13 33q0 22 -17 49
l-222 363q-24 40 -69 40q-42 0 -66 -40l-218 -354q-18 -30 -18 -51q0 -19 14 -40l222 -337q25 -38 69 -38q42 0 62 29zM669 1305l-136 88q-68 44 -68 97q0 48 33 79q31 30 68 30q34 0 80 -31l136 -88q68 -44 68 -96q0 -47 -33 -79q-32 -30 -69 -30q-32 0 -79 30z" />
    <glyph glyph-name="Uacute" unicode="&#xda;" 
d="M1246 1113v-794q2 -136 -92 -230q-90 -89 -207 -89h-410q-141 7 -225 98t-83 221v793q0 135 103 135q63 0 88 -51q14 -27 14 -84v-793q0 -56 33 -85t96 -29h344q142 -8 134 129v779q0 53 16 84q26 50 88 50t88 -50q13 -27 13 -84zM943 1393l-136 -88q-47 -30 -80 -30
q-42 0 -74 36q-28 31 -28 72q0 53 68 97l136 88q47 31 79 31q43 0 75 -36q27 -30 27 -73q0 -53 -67 -97z" />
    <glyph glyph-name="Ucircumflex" unicode="&#xdb;" 
d="M1246 1113v-794q2 -136 -92 -230q-90 -89 -207 -89h-410q-141 7 -225 98t-83 221v793q0 135 103 135q63 0 88 -51q14 -27 14 -84v-793q0 -56 33 -85t96 -29h344q142 -8 134 129v779q0 53 16 84q26 50 88 50t88 -50q13 -27 13 -84zM781 1389h-85l-129 -83q-47 -31 -79 -31
q-42 0 -74 36q-28 31 -28 72q0 53 68 97l136 88q44 30 82 29h133q37 1 82 -29l136 -88q67 -43 67 -96q0 -47 -33 -79q-31 -30 -69 -30q-32 0 -79 31z" />
    <glyph glyph-name="Ugrave" unicode="&#xd9;" 
d="M1246 1113v-794q2 -136 -92 -230q-90 -89 -207 -89h-410q-141 7 -225 98t-83 221v793q0 135 103 135q63 0 88 -51q14 -27 14 -84v-793q0 -56 33 -85t96 -29h344q142 -8 134 129v779q0 53 16 84q26 50 88 50t88 -50q13 -27 13 -84zM669 1305l-136 88q-67 44 -67 98
q0 47 33 78q31 30 69 30q32 0 79 -31l136 -88q68 -44 68 -96q0 -47 -33 -79q-31 -30 -69 -30q-33 0 -80 30z" />
    <glyph glyph-name="dotlessi" unicode="&#x131;" 
d="M643 911h-128q-61 0 -80 2q-41 6 -65 38q-19 27 -19 58q0 54 47 84q22 14 117 14h161q76 0 103 -7q15 -6 31 -22t21 -32q8 -27 8 -102v-748h121q61 0 79 -2q41 -5 65 -38q19 -26 19 -58q0 -54 -47 -84q-22 -14 -116 -14h-445q-61 0 -80 2q-41 6 -65 39q-19 26 -19 57
q0 54 47 84q22 14 117 14h128v715z" />
    <glyph glyph-name="circumflex" unicode="&#x2c6;" 
d="M780 1389h-85l-128 -83q-48 -31 -80 -31q-42 0 -74 36q-28 30 -28 73q0 52 68 96l136 88q44 30 82 29h133q38 1 82 -29l136 -88q68 -44 68 -96q0 -47 -33 -79q-31 -30 -69 -30q-32 0 -80 31z" />
    <glyph glyph-name="tilde" unicode="&#x2dc;" 
d="M746 1542l55 -35q55 -36 87 -36q36 0 51 45q27 79 107 79q42 0 71 -26q27 -24 27 -57q0 -66 -46 -131q-70 -100 -211 -100q-70 0 -126 31q-15 9 -45 29q-20 14 -22 15l-34 21q-49 30 -83 30q-35 0 -50 -45q-27 -79 -107 -79q-42 0 -71 26q-27 24 -27 57q0 66 46 131
q70 100 212 100q63 0 115 -26q26 -13 51 -29z" />
    <glyph glyph-name="macron" unicode="&#x2c9;" 
d="M449 1597h575q57 0 84 -13q50 -25 50 -87t-50 -87q-27 -13 -84 -13h-575q-56 0 -83 13q-50 25 -50 87t50 87q27 13 83 13z" />
    <glyph glyph-name="breve" unicode="&#x2d8;" 
d="M1004 1597q49 0 77 -28q25 -24 25 -63q0 -80 -69 -156q-54 -58 -132 -73q-61 -12 -167 -12q-167 0 -233 33q-61 32 -101 98q-35 57 -35 110q0 39 25 63q28 28 79 28q39 0 60 -25q13 -14 31 -54q13 -27 25 -36q38 -26 149 -26q128 0 156 34q9 10 27 49q26 58 83 58z" />
    <glyph glyph-name="dotaccent" unicode="&#x2d9;" 
d="M635 1417v44q0 58 14 85q25 51 88 51t88 -51q14 -27 14 -85v-44q0 -58 -14 -85q-11 -22 -36 -36.5t-52 -14.5q-62 0 -88 51q-14 27 -14 85z" />
    <glyph glyph-name="ring" unicode="&#x2da;" 
d="M590 1596h351q81 -1 134 -54q58 -59 57 -139v-128q1 -81 -57 -139q-53 -53 -134 -54h-351q-81 1 -134 54q-57 57 -57 139v128q0 81 57 139q53 53 134 54zM590 1401v-137h349v137h-349z" />
    <glyph glyph-name="cedilla" unicode="&#xb8;" 
d="M861 -298l-135 -89q-47 -30 -80 -30q-42 0 -74 35q-28 31 -28 73q0 53 68 97l136 88q47 31 79 31q42 0 75 -36q27 -30 27 -73q0 -53 -68 -96z" />
    <glyph glyph-name="hungarumlaut" unicode="&#x2dd;" 
d="M702 1393l-135 -88q-47 -30 -80 -30q-42 0 -74 36q-28 31 -28 72q0 53 68 97l136 88q47 31 80 31q41 0 74 -35q27 -31 27 -74q0 -53 -68 -97zM1150 1393l-136 -88q-47 -30 -80 -30q-42 0 -74 36q-28 30 -28 72q0 53 68 97l136 88q47 31 80 31q42 0 74 -35q27 -31 27 -74
q0 -53 -67 -97z" />
    <glyph glyph-name="ogonek" unicode="&#x2db;" 
d="M947 0h210q-36 -38 -54 -63q-29 -43 -29 -83q0 -64 69 -72q84 -9 84 -83q0 -41 -26 -67q-31 -31 -88 -31q-59 0 -114 31q-118 66 -118 195q0 86 66 173z" />
    <glyph glyph-name="caron" unicode="&#x2c7;" 
d="M695 1485h85l128 83q47 31 80 31q42 0 74 -36q28 -30 28 -73q0 -52 -68 -96l-136 -88q-44 -29 -82 -29h-133q-38 0 -82 29l-136 88q-68 44 -68 96q0 47 33 79q31 30 69 30q33 0 80 -31z" />
    <glyph glyph-name="Lslash" unicode="&#x141;" 
d="M233 548l-52 -33q-54 -34 -88 -34q-38 0 -69 32q-29 29 -29 71q0 45 37 77q10 9 41 28l160 100v672q0 58 14 85q25 51 88 51q102 0 102 -136v-544l265 165q54 34 89 34q37 0 68 -31q29 -30 29 -72q0 -44 -37 -77q-12 -9 -40 -27l-374 -234v-470h671q58 0 85 -14
q51 -25 51 -88t-51 -89q-27 -14 -85 -14h-875v548z" />
    <glyph glyph-name="lslash" unicode="&#x142;" 
d="M839 955l130 81q52 33 84 33q35 0 64 -30q28 -29 28 -69q0 -54 -73 -99l-233 -145v-530h121q61 0 79 -2q41 -5 65 -38q19 -26 19 -58q0 -53 -47 -84q-22 -14 -116 -14h-445q-62 0 -80 2q-41 6 -65 39q-19 26 -19 57q0 54 47 84q22 14 117 14h128v409l-121 -76
q-52 -32 -84 -32q-36 0 -66 30q-27 28 -27 68q0 42 35 73q9 8 38 26l225 139v485h-128q-62 0 -80 2q-41 5 -65 39q-19 26 -19 57q0 53 47 84q22 14 117 14h161q76 0 102 -7q16 -6 32 -22t21 -32q8 -27 8 -102v-396z" />
    <glyph glyph-name="Scaron" unicode="&#x160;" 
d="M965 1041h-485q-45 0 -45 -33q0 -18 17 -32l723 -583q70 -56 70 -151q0 -124 -90 -193q-63 -49 -144 -49h-503q-63 0 -122 28t-97 76q-58 74 -58 152q0 37 13 64q26 53 93 53q50 0 79 -41q14 -19 20 -74q3 -22 22 -37.5t44 -15.5h494q44 0 44 26q0 22 -22 40l-724 582
q-37 30 -50 59q-14 33 -14 91q0 136 108 206q56 37 146 37h486q61 0 120 -30t97 -79q56 -74 56 -154q0 -39 -13 -65q-26 -53 -91 -53q-50 0 -80 37q-15 20 -20 77q-3 28 -26 46q-21 16 -48 16zM695 1485h85l128 83q47 31 80 31q43 0 74 -36q28 -30 28 -72q0 -53 -68 -97
l-136 -88q-44 -29 -82 -29h-133q-38 0 -82 29l-136 88q-68 44 -68 96q0 47 33 79q31 30 69 30q33 0 80 -31z" />
    <glyph glyph-name="scaron" unicode="&#x161;" 
d="M566 1107h350q62 0 101 -8q39 -7 79 -40l55 -47q45 -38 45 -84q0 -42 -31 -70t-71 -28q-36 0 -63 22q-6 5 -29 32q-25 27 -87 27h-349q-39 0 -51 -7q-30 -15 -30 -51q0 -28 24 -44q6 -4 41 -20l500 -227q88 -40 129.5 -105.5t41.5 -165.5q0 -140 -96 -222
q-82 -69 -205 -69h-354q-138 -1 -202 46l-49 38q-61 46 -61 95q0 32 24 60q30 36 79 36q43 0 84 -44q31 -34 125 -35h316q59 0 81 14q48 29 48 94q0 60 -69 91l-510 232q-154 70 -154 235q0 81 49 142q81 103 239 103zM695 1485h85l128 83q47 31 80 31q42 0 74 -36
q28 -30 28 -73q0 -52 -68 -96l-136 -88q-44 -29 -82 -29h-133q-38 0 -82 29l-136 88q-68 44 -68 96q0 47 33 79q31 30 69 30q33 0 80 -31z" />
    <glyph glyph-name="Zcaron" unicode="&#x17d;" 
d="M541 205h565q58 0 85 -13q51 -26 51 -89t-51 -89q-27 -14 -85 -14h-876v146l704 895h-568q-136 0 -136 103q0 63 51 89q28 13 85 13h879v-148zM695 1485h85l128 83q47 31 80 31q43 0 74 -36q28 -30 28 -72q0 -53 -68 -97l-136 -88q-44 -29 -82 -29h-133q-38 0 -82 29
l-136 88q-68 44 -68 96q0 47 33 79q31 30 69 30q33 0 80 -31z" />
    <glyph glyph-name="zcaron" unicode="&#x17e;" 
d="M501 196h556q62 0 80 -2q41 -5 65 -38q19 -26 19 -58q0 -53 -47 -84q-22 -14 -117 -14h-639q-76 0 -103 8q-16 5 -32 21t-21 32q-8 27 -8 102v9q0 44 15 66q7 9 39 40l662 633h-498q-62 0 -80 2q-41 5 -65 39q-19 25 -19 57q0 47 31.5 72.5t88.5 25.5h44h585
q92 1 117 -14q25 -17 35 -37t12 -57v-55v-12q-1 -37 -12 -55q-7 -11 -29 -32zM727 1485h85l128 83q47 31 80 31q42 0 74 -36q28 -30 28 -73q0 -52 -68 -96l-136 -88q-44 -29 -82 -29h-133q-38 0 -82 29l-136 88q-68 44 -68 96q0 47 33 79q31 30 69 30q33 0 80 -31z" />
    <glyph glyph-name="brokenbar" unicode="&#xa6;" 
d="M840 304v-567q0 -136 -102 -136q-103 0 -103 136v567q0 135 103 135q102 0 102 -135zM840 1661v-567q0 -136 -102 -136q-103 0 -103 136v567q0 136 103 136q102 0 102 -136z" />
    <glyph glyph-name="Eth" unicode="&#xd0;" 
d="M430 703h-42q-57 0 -85 14q-51 26 -51 89t51 88q27 14 85 14h42v484h-66q-58 0 -86 14q-51 26 -51 89q0 27 14.5 52.5t36.5 36.5q27 13 86 13h353q94 0 173 -57q61 -45 101 -124l203 -408q50 -101 50 -209q0 -112 -48 -209l-209 -420q-39 -78 -111 -123q-77 -47 -178 -47
h-334q-58 0 -86 14q-51 26 -51 89q0 27 14.5 52t36.5 36q27 14 86 14h66v498zM635 703v-498h69q76 -1 105 64l203 412q27 54 27 113q0 65 -39 143l-194 391q-30 68 -107 64h-64v-484h128q58 0 85 -14q51 -25 51 -88t-51 -89q-27 -14 -85 -14h-128z" />
    <glyph glyph-name="eth" unicode="&#xf0;" 
d="M811 1195l-170 -105q-51 -32 -83 -32q-36 0 -66 30q-27 28 -27 68q0 43 35 73q9 8 38 26l172 106l-25 41h-28h-43q-62 0 -91 29q-29 28 -29 68q0 53 47 84q21 14 116 14h69q53 0 79 -19q16 -14 41 -62l31 -52l165 101q51 32 83 32q36 0 65 -30q28 -29 28 -68
q0 -53 -74 -98l-167 -104l211 -357q34 -60 33 -175v-423q-2 -129 -92 -204l-75 -63q-94 -76 -212 -75h-209q-66 0 -112 16q-50 18 -100 59l-75 63q-90 76 -92 204v263q2 129 92 204l75 63q50 41 100 59q46 16 112 16h328zM1025 751h-365q-48 0 -70 -10q-22 -8 -44 -26
l-54 -44q-41 -34 -42 -90v-215q1 -56 42 -90l54 -44q26 -21 52 -30q19 -6 62 -6h155q48 0 70 9q21 9 44 27l54 44q41 34 42 90v385z" />
    <glyph glyph-name="Yacute" unicode="&#xdd;" 
d="M738 612l303 393v105q0 58 14 85q25 51 88 51t88 -51q14 -27 14 -85v-176l-405 -525v-273q0 -136 -103 -136q-102 0 -102 136v273l-405 525v176q0 58 14 85q25 51 88 51t88 -51q14 -27 14 -85v-105zM942 1393l-136 -88q-47 -30 -79 -30q-42 0 -74 36q-28 30 -28 73
q0 52 68 96l136 88q46 31 79 31q42 0 74 -36q28 -30 28 -72q0 -54 -68 -98z" />
    <glyph glyph-name="yacute" unicode="&#xfd;" 
d="M759 278l266 581v85q0 61 2 79q6 41 39 65q25 19 57 19q54 0 84 -47q14 -22 14 -95v-56q0 -74 -2 -86q-2 -10 -34 -80l-499 -1082q-22 -47 -41 -62q-25 -19 -79 -19h-149q-61 0 -79 2q-41 5 -65 39q-19 25 -19 57q0 47 31.5 72.5t88.5 25.5h43h108l146 304h-26
q-33 0 -54 19q-15 14 -37 62l-264 582q-31 68 -34 80q-2 11 -2 86v56q0 77 19 102q31 40 79 40q54 0 84 -47q14 -22 14 -116v-85l266 -581h43zM942 1393l-135 -88q-47 -30 -80 -30q-42 0 -74 36q-28 31 -28 72q0 53 68 97l136 88q47 31 80 31q41 0 74 -35q27 -31 27 -74
q0 -53 -68 -97z" />
    <glyph glyph-name="Thorn" unicode="&#xde;" 
d="M432 1358h506q126 5 223 -93q91 -98 86 -234v-331q3 -147 -94 -247q-68 -67 -154 -81q-41 -7 -87 -7h-480v-228q0 -59 -14 -86q-11 -22 -36 -36.5t-52 -14.5t-52.5 14.5t-36.5 36.5q-14 28 -14 86v1324q0 136 103 136q63 0 88 -51q14 -27 14 -85v-103zM434 570h492
q58 0 87 32.5t29 97.5v331q0 60 -31.5 91t-92.5 31h-484v-583z" />
    <glyph glyph-name="thorn" unicode="&#xfe;" 
d="M450 112v-369q0 -61 -2 -79q-5 -41 -38 -65q-26 -19 -58 -19q-53 0 -84 47q-14 22 -14 116v1607q0 62 2 80q5 40 38 65q26 19 58 19q41 0 69 -29q29 -29 29 -83v-449l78 71q57 52 98 70q30 13 89 13h48q58 0 85 -9q43 -13 108 -65l158 -125q111 -85 107 -245v-261
q4 -160 -107 -245l-158 -125q-65 -52 -108 -65q-27 -9 -85 -9h-48q-58 0 -89 14q-41 18 -98 69zM988 745l-173 146q-21 19 -54 20h-35q-32 0 -77 -40l-161 -153q-24 -23 -31 -39t-7 -51v-190q0 -41 10 -59q7 -12 28 -32l161 -153q45 -40 77 -40h35q32 1 54 20l173 146
q29 25 34 48q3 15 3 50v229q0 35 -3 50q-5 23 -34 48z" />
    <glyph glyph-name="minus" unicode="&#x2212;" 
d="M1107 739h-741q-58 0 -85 14q-22 11 -36.5 35.5t-14.5 51.5t14.5 52.5t36.5 36.5q27 13 85 13h741q57 0 84 -13q22 -11 36.5 -36t14.5 -53q0 -101 -135 -101z" />
    <glyph glyph-name="multiply" unicode="&#xd7;" 
d="M594 840l-190 189q-54 54 -54 96t30 72q31 31 73 31q41 0 96 -54l189 -190l190 190q56 55 96 55q43 0 73 -31q30 -30 30 -73q0 -41 -54 -95l-190 -191l189 -188q54 -55 54 -96q0 -42 -30 -73q-31 -30 -73 -30q-41 0 -95 54l-189 189l-188 -188q-54 -54 -96 -54
q-43 0 -73 30t-30 73q0 42 55 96z" />
    <glyph glyph-name="onesuperior" unicode="&#xb9;" 
d="M824 812h71v188q0 39 10 60q23 45 76 45q42 0 64 -27t22 -78v-270q0 -49 -33 -75q-21 -16 -49 -16h-469q-52 0 -79.5 22t-27.5 65q0 42 27.5 64t79.5 22h136v612h-136q-52 0 -79.5 22t-27.5 64q0 43 27 65t80 22h308v-785z" />
    <glyph glyph-name="twosuperior" unicode="&#xb2;" 
d="M582 1031v-219h378q53 0 80 -22t27 -65q0 -42 -27 -64t-80 -22h-552v420q0 64 44 106q42 40 105 40h336v219h-378q-53 0 -80 22t-27 65q0 42 27 64t80 22h403q65 0 108 -45q41 -42 41 -105v-270q0 -63 -44 -105q-42 -41 -105 -41h-336z" />
    <glyph glyph-name="threesuperior" unicode="&#xb3;" 
d="M889 1424h-375q-53 0 -80 22t-27 65q0 42 27 64t80 22h403q57 0 99 -36q48 -41 46 -93v-251q1 -60 -34 -100q34 -41 37 -117v-217q1 -59 -44 -103q-40 -40 -104 -41h-403q-53 0 -80 22t-27 65q0 42 27 64t80 22h378v179q2 39 -41 40h-216q-52 0 -79 22t-27 64t27 64
t79 22h217q21 0 29 9.5t8 33.5v178z" />
    <glyph glyph-name="onehalf" unicode="&#xbd;" 
d="M1304 1501l-962 -1660q-48 -84 -108 -84q-46 0 -64 38q-6 13 -6 31q0 59 35 118l961 1651q47 83 97 83q27 0 52 -22q26 -23 26 -62q0 -40 -31 -93zM377 892h71v188q0 38 10 60q23 45 76 45q42 0 64 -27t22 -78v-270q0 -49 -33 -75q-22 -16 -49 -16h-405q-52 0 -79.5 22
t-27.5 64q0 43 27 65t80 22h72v612h-72q-52 0 -79.5 22t-27.5 64q0 43 27 65t80 22h244v-785zM1045 152v-219h298q53 0 80 -22t27 -64q0 -43 -27 -65t-80 -22h-472v420q0 64 44 106q42 40 105 40h256v220h-298q-53 0 -80 22t-27 65q0 42 27 64t80 22h323q65 0 108 -45
q41 -42 41 -105v-271q0 -63 -44 -105q-42 -41 -105 -41h-256z" />
    <glyph glyph-name="onequarter" unicode="&#xbc;" 
d="M1304 1501l-962 -1660q-48 -84 -108 -84q-46 0 -64 38q-6 13 -6 31q0 59 35 118l961 1651q47 83 97 83q27 0 52 -22q26 -23 26 -62q0 -40 -31 -93zM377 892h71v188q0 38 10 60q23 45 76 45q42 0 64 -27t22 -78v-270q0 -49 -33 -75q-22 -16 -49 -16h-405q-52 0 -79.5 22
t-27.5 64q0 43 27 65t80 22h72v612h-72q-52 0 -79.5 22t-27.5 64q0 43 27 65t80 22h244v-785zM1091 227h112v287q0 51 22 78t64 27t64 -27t22 -78v-291q61 -17 61 -81q0 -61 -61 -84v-192q0 -52 -22 -79t-64 -27t-64 27t-22 79v189h-285v558q0 52 22 79t65 27q42 0 64 -27
t22 -79v-386z" />
    <glyph glyph-name="threequarters" unicode="&#xbe;" 
d="M1303 1501l-961 -1660q-49 -84 -108 -84q-46 0 -64 38q-6 13 -6 31q0 60 34 118l962 1651q46 83 97 83q27 0 52 -22q26 -24 26 -62q0 -39 -32 -93zM1090 227h112v287q0 51 22 78t64 27t64 -27t22 -78v-291q61 -16 61 -81q0 -61 -61 -84v-192q0 -52 -22 -79t-64 -27
t-64 27t-22 79v189h-285v558q0 51 22 78.5t64 27.5t64.5 -27.5t22.5 -78.5v-386zM441 1504h-296q-52 0 -79 22t-27 65q0 42 27 64t79 22h324q57 0 99 -36q48 -41 46 -93v-251q1 -61 -34 -100q34 -41 37 -117v-217q1 -59 -44 -103q-40 -40 -104 -41h-324q-52 0 -79 22t-27 65
q0 42 27 64t79 22h299v179q2 39 -41 40h-136q-52 0 -79 22t-27 64t27 64t79 22h137q21 0 29 9.5t8 33.5v178z" />
    <glyph glyph-name="franc" unicode="&#x20a3;" 
d="M311 866v-729q0 -59 -14 -86q-26 -51 -89 -51q-62 0 -88 51q-14 28 -14 86v1460h880q59 0 86 -13q22 -12 36.5 -37t14.5 -52q0 -63 -51 -89q-28 -14 -86 -14h-675v-321h231q58 0 86 -14q22 -11 36.5 -36t14.5 -52q0 -28 -14.5 -53t-36.5 -36q-27 -14 -86 -14h-231z
M938 896l84 129q32 48 75 69q28 13 84 13q119 0 188 -91q63 -84 63 -216q0 -73 -30 -103q-28 -29 -69 -29q-40 0 -69 29t-29 82v24q0 108 -67 108q-31 0 -56 -38l-174 -269v-440q0 -58 -3 -80q-5 -41 -38 -65q-25 -19 -57 -19q-53 0 -84 47q-13 20 -14 117v780q0 97 19 122
q31 41 79 41q53 0 83 -47q15 -22 15 -116v-48z" />
    <glyph glyph-name="Gbreve" unicode="&#x11e;" 
d="M1045 441h-170q-58 0 -86 14q-51 26 -51 88q0 103 137 103h374v-349q-1 -127 -97 -215q-85 -80 -207 -82h-405q-125 -2 -220 91q-88 87 -88 219v213q3 145 93 254l273 349q96 117 248 120h264q58 0 85 -14q51 -25 51 -88t-51 -89q-27 -14 -85 -14h-237q-59 0 -81 -12
q-20 -13 -50 -52l-254 -325q-52 -63 -51 -156v-168q-1 -50 19 -81q31 -41 100 -42h376q58 0 88 35q26 31 25 88v113zM695 1485h85l129 83q46 31 79 31q42 0 74 -36q28 -30 28 -72q0 -53 -68 -97l-136 -88q-44 -29 -82 -29h-132q-38 0 -83 29l-136 88q-67 44 -67 96
q0 47 33 79q31 30 69 30q32 0 79 -31z" />
    <glyph glyph-name="gbreve" unicode="&#x11f;" 
d="M1004 1597q49 0 77 -28q25 -24 25 -63q0 -80 -69 -156q-54 -58 -132 -73q-61 -12 -167 -12q-167 0 -233 33q-61 32 -101 98q-35 57 -35 110q0 39 25 63q28 28 79 28q39 0 60 -25q13 -14 31 -54q13 -27 25 -36q38 -26 149 -26q128 0 156 34q9 10 27 49q26 58 83 58z
M1026 970q-1 71 19 97q30 40 79 40q53 0 84 -47q14 -21 14 -116v-962q0 -112 -12 -155q-14 -44 -66 -90l-103 -88q-85 -71 -203 -69h-325q-61 0 -79 2q-41 5 -65 39q-19 25 -19 57q0 47 31.5 72.5t87.5 25.5h44h314q59 0 94 28l79 64q20 17 25 49q1 13 1 53v252l-86 -78
q-47 -42 -92 -54q-22 -6 -86 -6h-143q-65 0 -95 8q-31 8 -63 34l-111 93q-95 80 -95 196v348q-1 73 26 125q22 47 69 83l89 69q49 38 87 51q49 17 94 16h136q97 0 168 -57zM451 727v-263q0 -69 27 -96l70 -61q32 -27 81 -27h122q36 1 79 37l147 120q31 25 38 39q11 22 11 52
v135q0 35 -14 59q-6 9 -35 32l-147 120q-43 36 -79 37h-122q-49 -1 -81 -27l-70 -61q-27 -27 -27 -96z" />
    <glyph glyph-name="Idot" unicode="&#x130;" 
d="M841 1041v-836h268q58 0 85 -14q51 -25 51 -88q0 -64 -51 -89q-27 -14 -85 -14h-739q-58 0 -85 14q-52 26 -52 89t51 88q28 14 86 14h266v836h-271q-57 0 -85 14q-51 26 -51 89q0 27 14.5 52t36.5 36q27 14 85 14h744q58 0 85 -14q51 -25 51 -88q0 -64 -51 -89
q-27 -14 -85 -14h-268zM635 1417v44q0 58 14 85q25 51 88 51t88 -51q14 -27 14 -85v-44q0 -58 -14 -85q-25 -51 -88 -51q-62 0 -88 51q-14 28 -14 85z" />
    <glyph glyph-name="Scedilla" unicode="&#x15e;" 
d="M862 -298l-135 -89q-47 -30 -80 -30q-42 0 -74 35q-28 31 -28 73q0 53 68 97l136 88q47 31 79 31q42 0 75 -36q27 -30 27 -73q0 -53 -68 -96zM965 1392h-485q-45 0 -45 -29q0 -14 17 -36l736 -944q57 -74 57 -152q0 -113 -89 -182q-64 -49 -145 -49h-503q-63 0 -122 28
t-97 76q-58 74 -58 152q0 37 13 64q26 53 93 53q50 0 79 -41q14 -19 20 -74q3 -22 22 -37.5t44 -15.5h494q44 0 44 24q0 13 -22 42l-736 944q-52 66 -52 148q0 126 108 197q56 37 146 37h486q61 0 120 -30t97 -79q56 -74 56 -154q0 -39 -13 -65q-26 -53 -91 -53
q-50 0 -80 37q-15 20 -20 78q-3 27 -26 45q-21 16 -48 16z" />
    <glyph glyph-name="scedilla" unicode="&#x15f;" 
d="M862 -298l-135 -89q-47 -30 -80 -30q-42 0 -74 35q-28 31 -28 73q0 53 68 97l136 88q47 31 79 31q42 0 75 -36q27 -30 27 -73q0 -53 -68 -96zM566 1107h350q62 0 101 -8q39 -7 79 -40l55 -47q45 -38 45 -84q0 -42 -31 -70t-71 -28q-36 0 -63 22q-6 5 -29 32
q-25 27 -87 27h-349q-39 0 -51 -7q-30 -15 -30 -51q0 -28 24 -44q6 -4 41 -20l500 -227q88 -40 129.5 -105.5t41.5 -165.5q0 -140 -96 -222q-82 -69 -205 -69h-354q-138 -1 -202 46l-49 38q-61 46 -61 95q0 32 24 60q30 36 79 36q43 0 84 -44q31 -34 125 -35h316q59 0 81 14
q48 29 48 94q0 60 -69 91l-510 232q-154 70 -154 235q0 81 49 142q81 103 239 103z" />
    <glyph glyph-name="Cacute" unicode="&#x106;" 
d="M766 1246h345q58 0 85 -14q51 -25 51 -88t-51 -89q-27 -14 -85 -14h-338q-44 0 -65 -16q-22 -15 -47 -47l-170 -226q-38 -51 -46 -74q-11 -30 -11 -55q0 -29 14 -62q7 -18 43 -67l170 -226q27 -36 50.5 -49.5t61.5 -13.5h338q58 0 85 -14q51 -26 51 -89t-51 -88
q-27 -14 -85 -14h-345q-97 0 -166 45q-52 37 -121 129l-187 250q-64 85 -64 199t64 199l187 250q69 92 121 129q69 45 166 45zM1022 1393l-136 -88q-47 -30 -80 -30q-41 0 -73 36q-28 31 -28 73q0 52 68 96l135 88q47 31 80 31q42 0 75 -36q27 -30 27 -72q0 -54 -68 -98z
" />
    <glyph glyph-name="cacute" unicode="&#x107;" 
d="M1022 1393l-135 -88q-47 -30 -80 -30q-42 0 -74 36q-28 31 -28 72q0 53 68 97l136 88q47 31 80 31q41 0 74 -35q27 -31 27 -74q0 -53 -68 -97zM1065 0h-319q-68 0 -108 10q-57 14 -103 52l-184 156q-96 78 -97 217v238q1 139 97 217l184 156q40 34 87 47.5t124 13.5h319
q61 0 79 -2q41 -5 65 -38q19 -26 19 -57q0 -54 -47 -84q-22 -15 -116 -15h-325q-41 0 -60 -7q-12 -4 -37 -26l-159 -135q-25 -21 -31 -45q-3 -11 -3 -58v-172q0 -51 5 -66q8 -19 29 -37l159 -135q28 -24 44 -29q15 -5 53 -5h325q61 -1 79 -3q41 -5 65 -37q19 -26 19 -58
q0 -53 -47 -84q-22 -14 -116 -14z" />
    <glyph glyph-name="Ccaron" unicode="&#x10c;" 
d="M765 1246h345q58 0 85 -14q51 -25 51 -88t-51 -89q-27 -14 -85 -14h-338q-44 0 -65 -16q-22 -15 -47 -47l-170 -226q-38 -51 -46 -74q-11 -30 -11 -55q0 -29 14 -62q7 -18 43 -67l170 -226q27 -36 50.5 -49.5t61.5 -13.5h338q58 0 85 -14q51 -26 51 -89t-51 -88
q-27 -14 -85 -14h-345q-97 0 -166 45q-52 37 -121 129l-187 250q-64 85 -64 199t64 199l187 250q69 92 121 129q69 45 166 45zM854 1485h85l128 83q47 31 80 31q43 0 74 -36q28 -30 28 -72q0 -53 -68 -97l-136 -88q-44 -29 -82 -29h-133q-38 0 -82 29l-136 88q-68 44 -68 97
q0 46 33 78q31 30 69 30q33 0 80 -31z" />
    <glyph glyph-name="ccaron" unicode="&#x10d;" 
d="M759 1485h85l128 83q47 31 80 31q42 0 74 -36q28 -30 28 -73q0 -52 -68 -96l-136 -88q-44 -29 -82 -29h-133q-38 0 -82 29l-136 88q-68 44 -68 96q0 47 33 79q31 30 69 30q33 0 80 -31zM1065 0h-319q-68 0 -108 10q-57 14 -103 52l-184 156q-96 78 -97 217v238
q1 139 97 217l184 156q40 34 87 47.5t124 13.5h319q61 0 79 -2q41 -5 65 -38q19 -26 19 -57q0 -54 -47 -84q-22 -15 -116 -15h-325q-41 0 -60 -7q-12 -4 -37 -26l-159 -135q-25 -21 -31 -45q-3 -11 -3 -58v-172q0 -51 5 -66q8 -19 29 -37l159 -135q28 -24 44 -29
q15 -5 53 -5h325q61 -1 79 -3q41 -5 65 -37q19 -26 19 -58q0 -53 -47 -84q-22 -14 -116 -14z" />
    <glyph glyph-name="dmacron" unicode="&#x111;" 
d="M1025 1185h-293q-110 0 -110 82t110 82h293v23v21q0 62 29 91t69 29q47 0 72.5 -31.5t25.5 -88.5v-21v-23h66q109 0 109 -82t-109 -82h-66v-1022q0 -61 -2 -79q-5 -41 -38 -65q-27 -19 -58 -19q-40 0 -69 29t-29 83v31l-82 -76q-40 -37 -84 -53q-38 -14 -110 -14h-101
q-71 0 -100 6q-55 12 -98 48l-108 89q-43 36 -67 90q-21 49 -21 97v447q0 48 21 97q24 54 67 90l108 89q44 37 98 48q29 6 100 6h101q72 0 110 -14q44 -16 84 -53l82 -76v221zM450 699v-291q0 -54 3 -73q6 -35 28 -51l75 -59q37 -29 71 -29h108q41 0 56 6q14 5 41 28
l151 128q32 27 39 49q3 12 3 66v160q0 58 -6 75q-7 17 -36 41l-151 128q-30 25 -48 30q-12 4 -49 4h-108q-34 0 -71 -29l-75 -59q-22 -16 -28 -51q-3 -19 -3 -73z" />
    <glyph glyph-name="nbspace" unicode="&#xa0;" 
 />
    <glyph glyph-name="sfthyphen" unicode="&#xad;" 
d="M966 671h-457q-129 -4 -136 102v48q7 106 136 102h457q129 4 136 -102v-48q-8 -106 -136 -102z" />
    <glyph glyph-name="overscore" unicode="&#xaf;" 
d="M0 1720v203h1475v-203h-1475z" />
    <glyph glyph-name="middot" unicode="&#xb7;" 
d="M836 386h-196q-46 0 -75 30t-29 73v171q0 39 26 69q30 35 79 35h195q44 0 73 -25q35 -32 35 -79v-166q0 -44 -27 -75q-30 -32 -81 -33z" />
    <glyph glyph-name="glyph262" 
d="M957 -298l-135 -89q-47 -30 -80 -30q-42 0 -74 35q-28 31 -28 73q0 53 68 97l136 88q47 31 79 31q42 0 75 -36q27 -30 27 -73q0 -53 -68 -96z" />
    <glyph glyph-name="glyph263" 
d="M420 1417v44q0 58 14 85q25 51 88 51t88 -51q14 -27 14 -85v-44q0 -58 -14 -85q-25 -51 -88 -51q-62 0 -88 51q-14 27 -14 85zM850 1417v44q0 58 14 85q25 51 88 51t88 -51q14 -27 14 -85v-44q0 -58 -14 -85q-26 -51 -88 -51t-88 51q-14 27 -14 85z" />
    <glyph glyph-name="glyph264" 
 />
  </font>
</defs>
</svg>
